Heavy.ufo
<glyph name="exclam" format="2">
  <advance width="350"/>
  <unicode hex="0021"/>
  <outline>
    <contour>
      <point x="105" y="55" type="curve" smooth="yes"/>
      <point x="105" y="93"/>
      <point x="134" y="125"/>
      <point x="175" y="125" type="curve" smooth="yes"/>
      <point x="216" y="125"/>
      <point x="245" y="93"/>
      <point x="245" y="55" type="curve" smooth="yes"/>
      <point x="245" y="17"/>
      <point x="216" y="-15"/>
      <point x="175" y="-15" type="curve" smooth="yes"/>
      <point x="134" y="-15"/>
      <point x="105" y="17"/>
    </contour>
    <contour>
      <point x="140" y="195" type="line"/>
      <point x="140" y="210" type="line"/>
      <point x="210" y="210" type="line"/>
      <point x="210" y="195" type="line"/>
    </contour>
    <contour>
      <point x="90" y="685" type="line"/>
      <point x="90" y="700" type="line"/>
      <point x="260" y="700" type="line"/>
      <point x="260" y="685" type="line"/>
    </contour>
    <contour>
      <point x="110" y="700" type="line"/>
      <point x="240" y="700" type="line"/>
      <point x="200" y="195" type="line"/>
      <point x="150" y="195" type="line"/>
    </contour>
  </outline>
</glyph>
<glyph name="quotedbl" format="2">
  <advance width="455"/>
  <unicode hex="0022"/>
  <outline>
    <contour>
      <point x="250" y="735" type="line"/>
      <point x="250" y="750" type="line"/>
      <point x="405" y="750" type="line"/>
      <point x="405" y="735" type="line"/>
    </contour>
    <contour>
      <point x="270" y="750" type="line"/>
      <point x="385" y="750" type="line"/>
      <point x="365" y="500" type="line"/>
      <point x="290" y="500" type="line"/>
    </contour>
    <contour>
      <point x="50" y="735" type="line"/>
      <point x="50" y="750" type="line"/>
      <point x="205" y="750" type="line"/>
      <point x="205" y="735" type="line"/>
    </contour>
    <contour>
      <point x="70" y="750" type="line"/>
      <point x="185" y="750" type="line"/>
      <point x="165" y="500" type="line"/>
      <point x="90" y="500" type="line"/>
    </contour>
  </outline>
</glyph>
<glyph name="numbersign" format="2">
  <advance width="605"/>
  <unicode hex="0023"/>
  <outline>
    <contour>
      <point x="30" y="285" type="line"/>
      <point x="45" y="285" type="line"/>
      <point x="45" y="160" type="line"/>
      <point x="30" y="160" type="line"/>
    </contour>
    <contour>
      <point x="530" y="285" type="line"/>
      <point x="545" y="285" type="line"/>
      <point x="545" y="160" type="line"/>
      <point x="530" y="160" type="line"/>
    </contour>
    <contour>
      <point x="60" y="545" type="line"/>
      <point x="75" y="545" type="line"/>
      <point x="75" y="420" type="line"/>
      <point x="60" y="420" type="line"/>
    </contour>
    <contour>
      <point x="560" y="545" type="line"/>
      <point x="575" y="545" type="line"/>
      <point x="575" y="420" type="line"/>
      <point x="560" y="420" type="line"/>
    </contour>
    <contour>
      <point x="277" y="0" type="line"/>
      <point x="277" y="15" type="line"/>
      <point x="412" y="15" type="line"/>
      <point x="412" y="0" type="line"/>
    </contour>
    <contour>
      <point x="67" y="0" type="line"/>
      <point x="67" y="15" type="line"/>
      <point x="202" y="15" type="line"/>
      <point x="202" y="0" type="line"/>
    </contour>
    <contour>
      <point x="403" y="685" type="line"/>
      <point x="403" y="700" type="line"/>
      <point x="538" y="700" type="line"/>
      <point x="538" y="685" type="line"/>
    </contour>
    <contour>
      <point x="193" y="685" type="line"/>
      <point x="193" y="700" type="line"/>
      <point x="328" y="700" type="line"/>
      <point x="328" y="685" type="line"/>
    </contour>
    <contour>
      <point x="60" y="440" type="line"/>
      <point x="60" y="525" type="line"/>
      <point x="575" y="525" type="line"/>
      <point x="575" y="440" type="line"/>
    </contour>
    <contour>
      <point x="30" y="180" type="line"/>
      <point x="30" y="265" type="line"/>
      <point x="545" y="265" type="line"/>
      <point x="545" y="180" type="line"/>
    </contour>
    <contour>
      <point x="425" y="700" type="line"/>
      <point x="520" y="700" type="line"/>
      <point x="390" y="0" type="line"/>
      <point x="295" y="0" type="line"/>
    </contour>
    <contour>
      <point x="215" y="700" type="line"/>
      <point x="310" y="700" type="line"/>
      <point x="180" y="0" type="line"/>
      <point x="85" y="0" type="line"/>
    </contour>
  </outline>
</glyph>
<glyph name="dollar" format="2">
  <advance width="765"/>
  <unicode hex="0024"/>
  <outline>
    <contour>
      <point x="445" y="740" type="line"/>
      <point x="485" y="740" type="line"/>
      <point x="485" y="-80" type="line"/>
      <point x="445" y="-80" type="line"/>
    </contour>
    <contour>
      <point x="305" y="740" type="line"/>
      <point x="345" y="740" type="line"/>
      <point x="345" y="-80" type="line"/>
      <point x="305" y="-80" type="line"/>
    </contour>
    <contour>
      <point x="120" y="181" type="line"/>
      <point x="133" y="173" type="line"/>
      <point x="63" y="68" type="line"/>
      <point x="50" y="76" type="line"/>
    </contour>
    <contour>
      <point x="693" y="625" type="line"/>
      <point x="706" y="617" type="line"/>
      <point x="636" y="512" type="line"/>
      <point x="623" y="520" type="line"/>
    </contour>
    <contour>
      <point x="118" y="163" type="line"/>
      <point x="184" y="119"/>
      <point x="281" y="78"/>
      <point x="395" y="78" type="curve" smooth="yes"/>
      <point x="510" y="78"/>
      <point x="606" y="123"/>
      <point x="606" y="206" type="curve" smooth="yes"/>
      <point x="606" y="288"/>
      <point x="537.67" y="296.068"/>
      <point x="398" y="308" type="curve" smooth="yes"/>
      <point x="213.993" y="323.72"/>
      <point x="97" y="374"/>
      <point x="97" y="501" type="curve" smooth="yes"/>
      <point x="97" y="635"/>
      <point x="211" y="710"/>
      <point x="400" y="710" type="curve" smooth="yes"/>
      <point x="533" y="710"/>
      <point x="618" y="664"/>
      <point x="693" y="611" type="curve"/>
      <point x="636" y="531" type="line"/>
      <point x="589" y="573"/>
      <point x="492" y="620"/>
      <point x="390" y="620" type="curve" smooth="yes"/>
      <point x="284" y="620"/>
      <point x="202" y="579"/>
      <point x="202" y="507" type="curve" smooth="yes"/>
      <point x="202" y="426"/>
      <point x="298.138" y="409.643"/>
      <point x="428" y="398" type="curve" smooth="yes"/>
      <point x="591.368" y="383.354"/>
      <point x="715" y="352"/>
      <point x="715" y="210" type="curve" smooth="yes"/>
      <point x="715" y="62"/>
      <point x="571" y="-10"/>
      <point x="400" y="-10" type="curve" smooth="yes"/>
      <point x="236" y="-10"/>
      <point x="125" y="43"/>
      <point x="70" y="87" type="curve"/>
    </contour>
  </outline>
</glyph>
<glyph name="percent" format="2">
  <advance width="921"/>
  <unicode hex="0025"/>
  <outline>
    <contour>
      <point x="108" y="0" type="line"/>
      <point x="108" y="15" type="line"/>
      <point x="278" y="15" type="line"/>
      <point x="278" y="0" type="line"/>
    </contour>
    <contour>
      <point x="643" y="685" type="line"/>
      <point x="643" y="700" type="line"/>
      <point x="813" y="700" type="line"/>
      <point x="813" y="685" type="line"/>
    </contour>
    <contour>
      <point x="520" y="170" type="curve" smooth="yes"/>
      <point x="520" y="264"/>
      <point x="583" y="350"/>
      <point x="698" y="350" type="curve" smooth="yes"/>
      <point x="813" y="350"/>
      <point x="876" y="264"/>
      <point x="876" y="170" type="curve" smooth="yes"/>
      <point x="876" y="76"/>
      <point x="813" y="-10"/>
      <point x="698" y="-10" type="curve" smooth="yes"/>
      <point x="583" y="-10"/>
      <point x="520" y="76"/>
    </contour>
    <contour>
      <point x="611" y="170" type="curve" smooth="yes"/>
      <point x="611" y="119"/>
      <point x="643" y="75"/>
      <point x="698" y="75" type="curve" smooth="yes"/>
      <point x="753" y="75"/>
      <point x="785" y="119"/>
      <point x="785" y="170" type="curve" smooth="yes"/>
      <point x="785" y="221"/>
      <point x="753" y="265"/>
      <point x="698" y="265" type="curve" smooth="yes"/>
      <point x="643" y="265"/>
      <point x="611" y="221"/>
    </contour>
    <contour>
      <point x="45" y="530" type="curve" smooth="yes"/>
      <point x="45" y="624"/>
      <point x="108" y="710"/>
      <point x="223" y="710" type="curve" smooth="yes"/>
      <point x="338" y="710"/>
      <point x="401" y="624"/>
      <point x="401" y="530" type="curve" smooth="yes"/>
      <point x="401" y="436"/>
      <point x="338" y="350"/>
      <point x="223" y="350" type="curve" smooth="yes"/>
      <point x="108" y="350"/>
      <point x="45" y="436"/>
    </contour>
    <contour>
      <point x="136" y="530" type="curve" smooth="yes"/>
      <point x="136" y="479"/>
      <point x="168" y="435"/>
      <point x="223" y="435" type="curve" smooth="yes"/>
      <point x="278" y="435"/>
      <point x="310" y="479"/>
      <point x="310" y="530" type="curve" smooth="yes"/>
      <point x="310" y="581"/>
      <point x="278" y="625"/>
      <point x="223" y="625" type="curve" smooth="yes"/>
      <point x="168" y="625"/>
      <point x="136" y="581"/>
    </contour>
    <contour>
      <point x="683" y="700" type="line"/>
      <point x="798" y="700" type="line"/>
      <point x="238" y="0" type="line"/>
      <point x="123" y="0" type="line"/>
    </contour>
  </outline>
</glyph>
<glyph name="ampersand" format="2">
  <advance width="817"/>
  <unicode hex="0026"/>
  <outline>
    <contour>
      <point x="767" y="121" type="line"/>
      <point x="782" y="121" type="line"/>
      <point x="782" y="-19" type="line"/>
      <point x="767" y="-19" type="line"/>
    </contour>
    <contour>
      <point x="767" y="476" type="line"/>
      <point x="782" y="476" type="line"/>
      <point x="782" y="336" type="line"/>
      <point x="767" y="336" type="line"/>
    </contour>
    <contour>
      <point x="598" y="185" type="curve" smooth="yes"/>
      <point x="527.932" y="53.8838"/>
      <point x="420" y="-10"/>
      <point x="295" y="-10" type="curve" smooth="yes"/>
      <point x="160" y="-10"/>
      <point x="35" y="65"/>
      <point x="35" y="204" type="curve" smooth="yes"/>
      <point x="35" y="358"/>
      <point x="160" y="430"/>
      <point x="295" y="430" type="curve" smooth="yes"/>
      <point x="420" y="430"/>
      <point x="520.101" y="339.108"/>
      <point x="577" y="238" type="curve" smooth="yes"/>
      <point x="640.169" y="125.752"/>
      <point x="677" y="101"/>
      <point x="782" y="101" type="curve"/>
      <point x="782" y="0" type="line"/>
      <point x="627" y="0"/>
      <point x="578.104" y="57.2627"/>
      <point x="500" y="185" type="curve" smooth="yes"/>
      <point x="450.108" y="266.596"/>
      <point x="378" y="350"/>
      <point x="283" y="350" type="curve" smooth="yes"/>
      <point x="208" y="350"/>
      <point x="150" y="300"/>
      <point x="150" y="213" type="curve" smooth="yes"/>
      <point x="150" y="128"/>
      <point x="205" y="85"/>
      <point x="295" y="85" type="curve" smooth="yes"/>
      <point x="394" y="85"/>
      <point x="468.763" y="138.812"/>
      <point x="526" y="235" type="curve" smooth="yes"/>
      <point x="586.168" y="336.113"/>
      <point x="657" y="440"/>
      <point x="782" y="460" type="curve"/>
      <point x="782" y="360" type="line"/>
      <point x="697" y="350"/>
      <point x="632.268" y="249.123"/>
    </contour>
    <contour>
      <point x="127" y="540" type="curve" smooth="yes"/>
      <point x="127" y="644"/>
      <point x="215" y="715"/>
      <point x="340" y="715" type="curve" smooth="yes"/>
      <point x="465" y="715"/>
      <point x="553" y="644"/>
      <point x="553" y="540" type="curve" smooth="yes"/>
      <point x="553" y="436"/>
      <point x="465" y="380"/>
      <point x="340" y="380" type="curve" smooth="yes"/>
      <point x="215" y="380"/>
      <point x="127" y="436"/>
    </contour>
    <contour>
      <point x="228" y="535" type="curve" smooth="yes"/>
      <point x="228" y="474"/>
      <point x="278" y="445"/>
      <point x="340" y="445" type="curve" smooth="yes"/>
      <point x="402" y="445"/>
      <point x="452" y="474"/>
      <point x="452" y="535" type="curve" smooth="yes"/>
      <point x="452" y="596"/>
      <point x="402" y="630"/>
      <point x="340" y="630" type="curve" smooth="yes"/>
      <point x="278" y="630"/>
      <point x="228" y="596"/>
    </contour>
  </outline>
</glyph>
<glyph name="quotesingle" format="2">
  <advance width="255"/>
  <unicode hex="0027"/>
  <outline>
    <contour>
      <point x="60" y="735" type="line"/>
      <point x="60" y="750" type="line"/>
      <point x="215" y="750" type="line"/>
      <point x="215" y="735" type="line"/>
    </contour>
    <contour>
      <point x="80" y="750" type="line"/>
      <point x="195" y="750" type="line"/>
      <point x="165" y="500" type="line"/>
      <point x="90" y="500" type="line"/>
    </contour>
  </outline>
</glyph>
<glyph name="parenleft" format="2">
  <advance width="325"/>
  <unicode hex="0028"/>
  <outline>
    <contour>
      <point x="170" y="-200" type="line"/>
      <point x="170" y="-185" type="line"/>
      <point x="325" y="-185" type="line"/>
      <point x="325" y="-200" type="line"/>
    </contour>
    <contour>
      <point x="170" y="765" type="line"/>
      <point x="170" y="780" type="line"/>
      <point x="325" y="780" type="line"/>
      <point x="325" y="765" type="line"/>
    </contour>
    <contour>
      <point x="205" y="780" type="curve"/>
      <point x="305" y="780" type="line"/>
      <point x="225" y="630"/>
      <point x="175" y="480"/>
      <point x="175" y="290" type="curve" smooth="yes"/>
      <point x="175" y="100"/>
      <point x="225" y="-50"/>
      <point x="305" y="-200" type="curve"/>
      <point x="205" y="-200" type="line"/>
      <point x="115" y="-50"/>
      <point x="60" y="80"/>
      <point x="60" y="290" type="curve" smooth="yes"/>
      <point x="60" y="500"/>
      <point x="115" y="630"/>
    </contour>
  </outline>
</glyph>
<glyph name="parenright" format="2">
  <advance width="325"/>
  <unicode hex="0029"/>
  <outline>
    <contour>
      <point x="155" y="780" type="line"/>
      <point x="155" y="765" type="line"/>
      <point x="0" y="765" type="line"/>
      <point x="0" y="780" type="line"/>
    </contour>
    <contour>
      <point x="155" y="-185" type="line"/>
      <point x="155" y="-200" type="line"/>
      <point x="0" y="-200" type="line"/>
      <point x="0" y="-185" type="line"/>
    </contour>
    <contour>
      <point x="120" y="-200" type="curve"/>
      <point x="20" y="-200" type="line"/>
      <point x="100" y="-50"/>
      <point x="150" y="100"/>
      <point x="150" y="290" type="curve" smooth="yes"/>
      <point x="150" y="480"/>
      <point x="100" y="630"/>
      <point x="20" y="780" type="curve"/>
      <point x="120" y="780" type="line"/>
      <point x="210" y="630"/>
      <point x="265" y="500"/>
      <point x="265" y="290" type="curve" smooth="yes"/>
      <point x="265" y="80"/>
      <point x="210" y="-50"/>
    </contour>
  </outline>
</glyph>
<glyph name="asterisk" format="2">
  <advance width="483"/>
  <unicode hex="002A"/>
  <outline>
    <contour>
      <point x="448" y="496" type="line"/>
      <point x="434" y="492" type="line"/>
      <point x="388" y="634" type="line"/>
      <point x="403" y="639" type="line"/>
    </contour>
    <contour>
      <point x="406" y="619" type="line"/>
      <point x="441" y="514" type="line"/>
      <point x="247" y="483" type="line"/>
      <point x="232" y="531" type="line"/>
    </contour>
    <contour>
      <point x="293" y="317" type="line"/>
      <point x="285" y="329" type="line"/>
      <point x="406" y="417" type="line"/>
      <point x="415" y="404" type="line"/>
    </contour>
    <contour>
      <point x="397" y="395" type="line"/>
      <point x="308" y="329" type="line"/>
      <point x="219" y="504" type="line"/>
      <point x="260" y="533" type="line"/>
    </contour>
    <contour>
      <point x="75" y="402" type="line"/>
      <point x="84" y="413" type="line"/>
      <point x="206" y="325" type="line"/>
      <point x="196" y="313" type="line"/>
    </contour>
    <contour>
      <point x="182" y="326" type="line"/>
      <point x="92" y="391" type="line"/>
      <point x="230" y="530" type="line"/>
      <point x="271" y="500" type="line"/>
    </contour>
    <contour>
      <point x="82" y="637" type="line"/>
      <point x="96" y="632" type="line"/>
      <point x="50" y="489" type="line"/>
      <point x="35" y="494" type="line"/>
    </contour>
    <contour>
      <point x="43" y="513" type="line"/>
      <point x="77" y="618" type="line"/>
      <point x="252" y="529" type="line"/>
      <point x="236" y="481" type="line"/>
    </contour>
    <contour>
      <point x="319" y="700" type="line"/>
      <point x="319" y="685" type="line"/>
      <point x="169" y="685" type="line"/>
      <point x="169" y="700" type="line"/>
    </contour>
    <contour>
      <point x="189" y="700" type="line"/>
      <point x="299" y="700" type="line"/>
      <point x="269" y="505" type="line"/>
      <point x="219" y="505" type="line"/>
    </contour>
  </outline>
</glyph>
<glyph name="plus" format="2">
  <advance width="675"/>
  <unicode hex="002B"/>
  <outline>
    <contour>
      <point x="405" y="500" type="line"/>
      <point x="405" y="485" type="line"/>
      <point x="265" y="485" type="line"/>
      <point x="265" y="500" type="line"/>
    </contour>
    <contour>
      <point x="405" y="25" type="line"/>
      <point x="405" y="10" type="line"/>
      <point x="265" y="10" type="line"/>
      <point x="265" y="25" type="line"/>
    </contour>
    <contour>
      <point x="570" y="320" type="line"/>
      <point x="585" y="320" type="line"/>
      <point x="585" y="190" type="line"/>
      <point x="570" y="190" type="line"/>
    </contour>
    <contour>
      <point x="90" y="320" type="line"/>
      <point x="105" y="320" type="line"/>
      <point x="105" y="190" type="line"/>
      <point x="90" y="190" type="line"/>
    </contour>
    <contour>
      <point x="90" y="210" type="line"/>
      <point x="90" y="300" type="line"/>
      <point x="585" y="300" type="line"/>
      <point x="585" y="210" type="line"/>
    </contour>
    <contour>
      <point x="285" y="500" type="line"/>
      <point x="385" y="500" type="line"/>
      <point x="385" y="10" type="line"/>
      <point x="285" y="10" type="line"/>
    </contour>
  </outline>
</glyph>
<glyph name="comma" format="2">
  <advance width="307"/>
  <unicode hex="002C"/>
  <outline>
    <contour>
      <point x="75" y="54" type="curve" smooth="yes"/>
      <point x="75" y="95"/>
      <point x="111" y="125"/>
      <point x="152" y="125" type="curve" smooth="yes"/>
      <point x="200" y="125"/>
      <point x="232" y="90"/>
      <point x="232" y="34" type="curve" smooth="yes"/>
      <point x="232" y="-52"/>
      <point x="193" y="-131"/>
      <point x="123" y="-146" type="curve"/>
      <point x="123" y="-109" type="line"/>
      <point x="158" y="-88"/>
      <point x="178" y="-42"/>
      <point x="178" y="19" type="curve"/>
      <point x="201" y="19" type="line"/>
      <point x="201" y="14"/>
      <point x="190" y="-15"/>
      <point x="148" y="-15" type="curve" smooth="yes"/>
      <point x="102" y="-15"/>
      <point x="75" y="13"/>
    </contour>
  </outline>
</glyph>
<glyph name="period" format="2">
  <advance width="300"/>
  <unicode hex="002E"/>
  <outline>
    <contour>
      <point x="80" y="55" type="curve" smooth="yes"/>
      <point x="80" y="93"/>
      <point x="109" y="125"/>
      <point x="150" y="125" type="curve" smooth="yes"/>
      <point x="191" y="125"/>
      <point x="220" y="93"/>
      <point x="220" y="55" type="curve" smooth="yes"/>
      <point x="220" y="17"/>
      <point x="191" y="-15"/>
      <point x="150" y="-15" type="curve" smooth="yes"/>
      <point x="109" y="-15"/>
      <point x="80" y="17"/>
    </contour>
  </outline>
</glyph>
<glyph name="zero" format="2">
  <advance width="810"/>
  <unicode hex="0030"/>
  <outline>
    <contour>
      <point x="160" y="350" type="curve" smooth="yes"/>
      <point x="160" y="186"/>
      <point x="272" y="90"/>
      <point x="405" y="90" type="curve" smooth="yes"/>
      <point x="538" y="90"/>
      <point x="650" y="186"/>
      <point x="650" y="350" type="curve" smooth="yes"/>
      <point x="650" y="514"/>
      <point x="538" y="610"/>
      <point x="405" y="610" type="curve" smooth="yes"/>
      <point x="272" y="610"/>
      <point x="160" y="514"/>
    </contour>
    <contour>
      <point x="45" y="350" type="curve" smooth="yes"/>
      <point x="45" y="574"/>
      <point x="216" y="710"/>
      <point x="405" y="710" type="curve" smooth="yes"/>
      <point x="594" y="710"/>
      <point x="765" y="574"/>
      <point x="765" y="350" type="curve" smooth="yes"/>
      <point x="765" y="126"/>
      <point x="594" y="-10"/>
      <point x="405" y="-10" type="curve" smooth="yes"/>
      <point x="216" y="-10"/>
      <point x="45" y="126"/>
    </contour>
  </outline>
</glyph>
<glyph name="one" format="2">
  <advance width="472"/>
  <unicode hex="0031"/>
  <outline>
    <contour>
      <point x="100" y="634" type="line"/>
      <point x="115" y="634" type="line"/>
      <point x="115" y="483" type="line"/>
      <point x="100" y="483" type="line"/>
    </contour>
    <contour>
      <point x="100" y="495" type="line"/>
      <point x="100" y="610" type="line"/>
      <point x="215" y="660" type="line"/>
      <point x="215" y="545" type="line"/>
    </contour>
    <contour>
      <point x="192" y="0" type="line"/>
      <point x="192" y="15" type="line"/>
      <point x="352" y="15" type="line"/>
      <point x="352" y="0" type="line"/>
    </contour>
    <contour>
      <point x="192" y="685" type="line"/>
      <point x="192" y="700" type="line"/>
      <point x="352" y="700" type="line"/>
      <point x="352" y="685" type="line"/>
    </contour>
    <contour>
      <point x="212" y="700" type="line"/>
      <point x="332" y="700" type="line"/>
      <point x="332" y="0" type="line"/>
      <point x="212" y="0" type="line"/>
    </contour>
  </outline>
</glyph>
<glyph name="two" format="2">
  <advance width="695"/>
  <unicode hex="0032"/>
  <outline>
    <contour>
      <point x="30" y="0" type="line"/>
      <point x="45" y="0" type="line"/>
      <point x="45" y="-20" type="line"/>
      <point x="30" y="-20" type="line"/>
    </contour>
    <contour>
      <point x="65" y="563" type="line"/>
      <point x="166" y="467" type="line"/>
      <point x="156" y="456" type="line"/>
      <point x="55" y="552" type="line"/>
    </contour>
    <contour>
      <point x="650" y="120" type="line"/>
      <point x="665" y="120" type="line"/>
      <point x="665" y="-20" type="line"/>
      <point x="650" y="-20" type="line"/>
    </contour>
    <contour>
      <point x="30" y="0" type="line"/>
      <point x="131" y="100" type="line"/>
      <point x="665" y="100" type="line"/>
      <point x="665" y="0" type="line"/>
    </contour>
    <contour>
      <point x="30" y="0" type="line"/>
      <point x="30" y="240"/>
      <point x="232.122" y="300.588"/>
      <point x="362" y="360" type="curve" smooth="yes"/>
      <point x="417.864" y="385.555"/>
      <point x="517" y="425"/>
      <point x="517" y="511" type="curve" smooth="yes"/>
      <point x="517" y="572"/>
      <point x="470" y="611"/>
      <point x="378" y="611" type="curve" smooth="yes"/>
      <point x="278" y="611"/>
      <point x="197" y="552"/>
      <point x="147" y="476" type="curve"/>
      <point x="72" y="546" type="line"/>
      <point x="142" y="645"/>
      <point x="241" y="711"/>
      <point x="378" y="711" type="curve" smooth="yes"/>
      <point x="555" y="711"/>
      <point x="630" y="612"/>
      <point x="630" y="508" type="curve" smooth="yes"/>
      <point x="630" y="386"/>
      <point x="546.068" y="330.011"/>
      <point x="440" y="284" type="curve" smooth="yes"/>
      <point x="328.746" y="235.74"/>
      <point x="194" y="200"/>
      <point x="164" y="90" type="curve"/>
    </contour>
  </outline>
</glyph>
<glyph name="three" format="2">
  <advance width="747"/>
  <unicode hex="0033"/>
  <outline>
    <contour>
      <point x="291" y="440" type="line"/>
      <point x="306" y="440" type="line"/>
      <point x="306" y="312" type="line"/>
      <point x="291" y="312" type="line"/>
    </contour>
    <contour>
      <point x="59" y="84" type="line"/>
      <point x="45" y="92" type="line"/>
      <point x="124" y="217" type="line"/>
      <point x="138" y="209" type="line"/>
    </contour>
    <contour>
      <point x="83" y="583" type="line"/>
      <point x="183" y="485" type="line"/>
      <point x="173" y="474" type="line"/>
      <point x="73" y="572" type="line"/>
    </contour>
    <contour>
      <point x="300" y="352" type="curve"/>
      <point x="300" y="420" type="line"/>
      <point x="480" y="420"/>
      <point x="545" y="456"/>
      <point x="545" y="520" type="curve" smooth="yes"/>
      <point x="545" y="582"/>
      <point x="490" y="616"/>
      <point x="400" y="616" type="curve" smooth="yes"/>
      <point x="305" y="616"/>
      <point x="210" y="563"/>
      <point x="162" y="492" type="curve"/>
      <point x="91" y="566" type="line"/>
      <point x="160" y="664"/>
      <point x="279" y="710"/>
      <point x="394" y="710" type="curve" smooth="yes"/>
      <point x="564" y="710"/>
      <point x="667" y="636"/>
      <point x="667" y="534" type="curve" smooth="yes"/>
      <point x="667" y="395"/>
      <point x="485" y="352"/>
    </contour>
    <contour>
      <point x="390" y="-10" type="curve" smooth="yes"/>
      <point x="205" y="-10"/>
      <point x="114" y="64"/>
      <point x="64" y="105" type="curve"/>
      <point x="119" y="204" type="line"/>
      <point x="159" y="150"/>
      <point x="250" y="90"/>
      <point x="380" y="90" type="curve" smooth="yes"/>
      <point x="520" y="90"/>
      <point x="583" y="139"/>
      <point x="583" y="215" type="curve" smooth="yes"/>
      <point x="583" y="301"/>
      <point x="500" y="332"/>
      <point x="300" y="332" type="curve"/>
      <point x="300" y="400" type="line"/>
      <point x="525" y="400"/>
      <point x="702" y="355"/>
      <point x="702" y="206" type="curve" smooth="yes"/>
      <point x="702" y="69"/>
      <point x="565" y="-10"/>
    </contour>
  </outline>
</glyph>
<glyph name="four" format="2">
  <advance width="723"/>
  <unicode hex="0034"/>
  <outline>
    <contour>
      <point x="419" y="685" type="line"/>
      <point x="419" y="700" type="line"/>
      <point x="593" y="700" type="line"/>
      <point x="593" y="685" type="line"/>
    </contour>
    <contour>
      <point x="30" y="130" type="line"/>
      <point x="45" y="130" type="line"/>
      <point x="45" y="110" type="line"/>
      <point x="30" y="110" type="line"/>
    </contour>
    <contour>
      <point x="668" y="246" type="line"/>
      <point x="683" y="246" type="line"/>
      <point x="683" y="106" type="line"/>
      <point x="668" y="106" type="line"/>
    </contour>
    <contour>
      <point x="443" y="0" type="line"/>
      <point x="443" y="15" type="line"/>
      <point x="593" y="15" type="line"/>
      <point x="593" y="0" type="line"/>
    </contour>
    <contour>
      <point x="30" y="130" type="line"/>
      <point x="30" y="210" type="line"/>
      <point x="458" y="700" type="line"/>
      <point x="573" y="700" type="line"/>
      <point x="573" y="0" type="line"/>
      <point x="463" y="0" type="line"/>
      <point x="463" y="176" type="line"/>
      <point x="463" y="187" type="line"/>
      <point x="463" y="570" type="line"/>
      <point x="167" y="230" type="line"/>
      <point x="498" y="230" type="line"/>
      <point x="515" y="230" type="line"/>
      <point x="683" y="230" type="line"/>
      <point x="683" y="130" type="line"/>
    </contour>
  </outline>
</glyph>
<glyph name="five" format="2">
  <advance width="732"/>
  <unicode hex="0035"/>
  <outline>
    <contour>
      <point x="40" y="126" type="line"/>
      <point x="131" y="220" type="line"/>
      <point x="139" y="211" type="line"/>
      <point x="48" y="117" type="line"/>
    </contour>
    <contour>
      <point x="67" y="381" type="line"/>
      <point x="75" y="390" type="line"/>
      <point x="166" y="296" type="line"/>
      <point x="158" y="287" type="line"/>
    </contour>
    <contour>
      <point x="65" y="685" type="line"/>
      <point x="65" y="700" type="line"/>
      <point x="85" y="700" type="line"/>
      <point x="85" y="685" type="line"/>
    </contour>
    <contour>
      <point x="614" y="720" type="line"/>
      <point x="629" y="720" type="line"/>
      <point x="629" y="569" type="line"/>
      <point x="614" y="569" type="line"/>
    </contour>
    <contour>
      <point x="682" y="240" type="curve" smooth="yes"/>
      <point x="682" y="71"/>
      <point x="551" y="-10"/>
      <point x="376" y="-10" type="curve" smooth="yes"/>
      <point x="217" y="-10"/>
      <point x="104" y="65"/>
      <point x="58" y="127" type="curve"/>
      <point x="122" y="200" type="line"/>
      <point x="163" y="155"/>
      <point x="249" y="90"/>
      <point x="376" y="90" type="curve" smooth="yes"/>
      <point x="486" y="90"/>
      <point x="569" y="144"/>
      <point x="569" y="240" type="curve" smooth="yes"/>
      <point x="569" y="336"/>
      <point x="486" y="386"/>
      <point x="396" y="386" type="curve" smooth="yes"/>
      <point x="309" y="386"/>
      <point x="227" y="363"/>
      <point x="156" y="306" type="curve"/>
      <point x="85" y="380" type="line"/>
      <point x="85" y="700" type="line"/>
      <point x="629" y="700" type="line"/>
      <point x="629" y="600" type="line"/>
      <point x="185" y="600" type="line"/>
      <point x="185" y="423" type="line"/>
      <point x="218" y="440"/>
      <point x="277" y="486"/>
      <point x="402" y="486" type="curve" smooth="yes"/>
      <point x="562" y="486"/>
      <point x="682" y="389"/>
    </contour>
  </outline>
</glyph>
<glyph name="six" format="2">
  <advance width="694"/>
  <unicode hex="0036"/>
  <outline>
    <contour>
      <point x="556" y="547" type="line"/>
      <point x="628" y="652" type="line"/>
      <point x="637" y="645" type="line"/>
      <point x="565" y="540" type="line"/>
    </contour>
    <contour>
      <point x="394" y="610" type="curve"/>
      <point x="404" y="710" type="line"/>
      <point x="494" y="710"/>
      <point x="568" y="676"/>
      <point x="622" y="637" type="curve"/>
      <point x="568" y="556" type="line"/>
      <point x="526" y="582"/>
      <point x="464" y="610"/>
    </contour>
    <contour>
      <point x="549" y="240" type="curve" smooth="yes"/>
      <point x="549" y="333"/>
      <point x="457" y="370"/>
      <point x="368" y="370" type="curve" smooth="yes"/>
      <point x="285" y="370"/>
      <point x="169" y="341"/>
      <point x="169" y="231" type="curve"/>
      <point x="118" y="280" type="line"/>
      <point x="118" y="397"/>
      <point x="249" y="470"/>
      <point x="380" y="470" type="curve" smooth="yes"/>
      <point x="491" y="470"/>
      <point x="659" y="413"/>
      <point x="659" y="240" type="curve" smooth="yes"/>
      <point x="659" y="80"/>
      <point x="544" y="-10"/>
      <point x="373" y="-10" type="curve" smooth="yes"/>
      <point x="182" y="-10"/>
      <point x="35" y="100"/>
      <point x="35" y="330" type="curve" smooth="yes"/>
      <point x="35" y="563"/>
      <point x="182" y="710"/>
      <point x="404" y="710" type="curve"/>
      <point x="394" y="610" type="line"/>
      <point x="250" y="610"/>
      <point x="138" y="522"/>
      <point x="138" y="350" type="curve"/>
      <point x="169" y="231" type="line"/>
      <point x="169" y="137"/>
      <point x="264" y="90"/>
      <point x="373" y="90" type="curve" smooth="yes"/>
      <point x="472" y="90"/>
      <point x="549" y="136"/>
    </contour>
  </outline>
</glyph>
<glyph name="seven" format="2">
  <advance width="679"/>
  <unicode hex="0037"/>
  <outline>
    <contour>
      <point x="136" y="0" type="line"/>
      <point x="136" y="15" type="line"/>
      <point x="316" y="15" type="line"/>
      <point x="316" y="0" type="line"/>
    </contour>
    <contour>
      <point x="634" y="720" type="line"/>
      <point x="649" y="720" type="line"/>
      <point x="649" y="699" type="line"/>
      <point x="634" y="699" type="line"/>
    </contour>
    <contour>
      <point x="30" y="720" type="line"/>
      <point x="45" y="720" type="line"/>
      <point x="45" y="569" type="line"/>
      <point x="30" y="569" type="line"/>
    </contour>
    <contour>
      <point x="30" y="600" type="line"/>
      <point x="30" y="700" type="line"/>
      <point x="649" y="700" type="line"/>
      <point x="649" y="601" type="line"/>
      <point x="283" y="0" type="line"/>
      <point x="152" y="0" type="line"/>
      <point x="529" y="600" type="line"/>
    </contour>
  </outline>
</glyph>
<glyph name="eight" format="2">
  <advance width="746"/>
  <unicode hex="0038"/>
  <outline>
    <contour>
      <point x="70" y="524" type="curve" smooth="yes"/>
      <point x="70" y="633"/>
      <point x="193" y="710"/>
      <point x="373" y="710" type="curve" smooth="yes"/>
      <point x="553" y="710"/>
      <point x="676" y="633"/>
      <point x="676" y="524" type="curve" smooth="yes"/>
      <point x="676" y="405"/>
      <point x="558" y="350"/>
      <point x="373" y="350" type="curve" smooth="yes"/>
      <point x="188" y="350"/>
      <point x="70" y="405"/>
    </contour>
    <contour>
      <point x="176" y="521" type="curve" smooth="yes"/>
      <point x="176" y="460"/>
      <point x="263" y="415"/>
      <point x="373" y="415" type="curve" smooth="yes"/>
      <point x="483" y="415"/>
      <point x="570" y="460"/>
      <point x="570" y="521" type="curve" smooth="yes"/>
      <point x="570" y="582"/>
      <point x="488" y="615"/>
      <point x="373" y="615" type="curve" smooth="yes"/>
      <point x="258" y="615"/>
      <point x="176" y="582"/>
    </contour>
    <contour>
      <point x="45" y="195" type="curve" smooth="yes"/>
      <point x="45" y="324"/>
      <point x="188" y="395"/>
      <point x="373" y="395" type="curve" smooth="yes"/>
      <point x="558" y="395"/>
      <point x="701" y="324"/>
      <point x="701" y="195" type="curve" smooth="yes"/>
      <point x="701" y="76"/>
      <point x="568" y="-10"/>
      <point x="373" y="-10" type="curve" smooth="yes"/>
      <point x="178" y="-10"/>
      <point x="45" y="76"/>
    </contour>
    <contour>
      <point x="161" y="205" type="curve" smooth="yes"/>
      <point x="161" y="129"/>
      <point x="243" y="85"/>
      <point x="373" y="85" type="curve" smooth="yes"/>
      <point x="503" y="85"/>
      <point x="585" y="129"/>
      <point x="585" y="205" type="curve" smooth="yes"/>
      <point x="585" y="271"/>
      <point x="513" y="330"/>
      <point x="373" y="330" type="curve" smooth="yes"/>
      <point x="233" y="330"/>
      <point x="161" y="271"/>
    </contour>
  </outline>
</glyph>
<glyph name="nine" format="2">
  <advance width="717"/>
  <unicode hex="0039"/>
  <outline>
    <contour>
      <point x="116" y="174" type="line"/>
      <point x="44" y="69" type="line"/>
      <point x="35" y="76" type="line"/>
      <point x="107" y="181" type="line"/>
    </contour>
    <contour>
      <point x="318" y="90" type="curve"/>
      <point x="321" y="-10" type="line"/>
      <point x="221" y="-10"/>
      <point x="114" y="35"/>
      <point x="50" y="84" type="curve"/>
      <point x="104" y="165" type="line"/>
      <point x="156" y="129"/>
      <point x="238" y="90"/>
    </contour>
    <contour>
      <point x="168" y="460" type="curve" smooth="yes"/>
      <point x="168" y="367"/>
      <point x="260" y="330"/>
      <point x="349" y="330" type="curve" smooth="yes"/>
      <point x="432" y="330"/>
      <point x="548" y="359"/>
      <point x="548" y="469" type="curve"/>
      <point x="599" y="420" type="line"/>
      <point x="599" y="303"/>
      <point x="468" y="230"/>
      <point x="337" y="230" type="curve" smooth="yes"/>
      <point x="226" y="230"/>
      <point x="58" y="287"/>
      <point x="58" y="460" type="curve" smooth="yes"/>
      <point x="58" y="620"/>
      <point x="173" y="710"/>
      <point x="344" y="710" type="curve" smooth="yes"/>
      <point x="535" y="710"/>
      <point x="682" y="600"/>
      <point x="682" y="370" type="curve" smooth="yes"/>
      <point x="682" y="137"/>
      <point x="543" y="-10"/>
      <point x="321" y="-10" type="curve"/>
      <point x="318" y="90" type="line"/>
      <point x="462" y="90"/>
      <point x="579" y="178"/>
      <point x="579" y="350" type="curve"/>
      <point x="548" y="469" type="line"/>
      <point x="548" y="563"/>
      <point x="453" y="610"/>
      <point x="344" y="610" type="curve" smooth="yes"/>
      <point x="245" y="610"/>
      <point x="168" y="564"/>
    </contour>
  </outline>
</glyph>
<glyph name="less" format="2">
  <advance width="640"/>
  <unicode hex="003C"/>
  <outline>
    <contour>
      <point x="65" y="315" type="line"/>
      <point x="80" y="315" type="line"/>
      <point x="80" y="200" type="line"/>
      <point x="65" y="200" type="line"/>
    </contour>
    <contour>
      <point x="560" y="520" type="line"/>
      <point x="575" y="520" type="line"/>
      <point x="575" y="390" type="line"/>
      <point x="560" y="390" type="line"/>
    </contour>
    <contour>
      <point x="560" y="125" type="line"/>
      <point x="575" y="125" type="line"/>
      <point x="575" y="-5" type="line"/>
      <point x="560" y="-5" type="line"/>
    </contour>
    <contour>
      <point x="217" y="262" type="line"/>
      <point x="575" y="105" type="line"/>
      <point x="575" y="5" type="line"/>
      <point x="65" y="225" type="line"/>
      <point x="65" y="290" type="line"/>
      <point x="575" y="510" type="line"/>
      <point x="575" y="410" type="line"/>
    </contour>
  </outline>
</glyph>
<glyph name="equal" format="2">
  <advance width="615"/>
  <unicode hex="003D"/>
  <outline>
    <contour>
      <point x="535" y="405" type="line"/>
      <point x="550" y="405" type="line"/>
      <point x="550" y="275" type="line"/>
      <point x="535" y="275" type="line"/>
    </contour>
    <contour>
      <point x="535" y="230" type="line"/>
      <point x="550" y="230" type="line"/>
      <point x="550" y="100" type="line"/>
      <point x="535" y="100" type="line"/>
    </contour>
    <contour>
      <point x="65" y="405" type="line"/>
      <point x="80" y="405" type="line"/>
      <point x="80" y="275" type="line"/>
      <point x="65" y="275" type="line"/>
    </contour>
    <contour>
      <point x="65" y="230" type="line"/>
      <point x="80" y="230" type="line"/>
      <point x="80" y="100" type="line"/>
      <point x="65" y="100" type="line"/>
    </contour>
    <contour>
      <point x="65" y="115" type="line"/>
      <point x="65" y="215" type="line"/>
      <point x="550" y="215" type="line"/>
      <point x="550" y="115" type="line"/>
    </contour>
    <contour>
      <point x="65" y="290" type="line"/>
      <point x="65" y="390" type="line"/>
      <point x="550" y="390" type="line"/>
      <point x="550" y="290" type="line"/>
    </contour>
  </outline>
</glyph>
<glyph name="greater" format="2">
  <advance width="640"/>
  <unicode hex="003E"/>
  <outline>
    <contour>
      <point x="575" y="200" type="line"/>
      <point x="560" y="200" type="line"/>
      <point x="560" y="315" type="line"/>
      <point x="575" y="315" type="line"/>
    </contour>
    <contour>
      <point x="80" y="-5" type="line"/>
      <point x="65" y="-5" type="line"/>
      <point x="65" y="125" type="line"/>
      <point x="80" y="125" type="line"/>
    </contour>
    <contour>
      <point x="80" y="390" type="line"/>
      <point x="65" y="390" type="line"/>
      <point x="65" y="520" type="line"/>
      <point x="80" y="520" type="line"/>
    </contour>
    <contour>
      <point x="423" y="253" type="line"/>
      <point x="65" y="410" type="line"/>
      <point x="65" y="510" type="line"/>
      <point x="575" y="290" type="line"/>
      <point x="575" y="225" type="line"/>
      <point x="65" y="5" type="line"/>
      <point x="65" y="105" type="line"/>
    </contour>
  </outline>
</glyph>
<glyph name="question" format="2">
  <advance width="557"/>
  <unicode hex="003F"/>
  <outline>
    <contour>
      <point x="59" y="601" type="line"/>
      <point x="149" y="517" type="line"/>
      <point x="139" y="507" type="line"/>
      <point x="49" y="591" type="line"/>
    </contour>
    <contour>
      <point x="196" y="195" type="line"/>
      <point x="196" y="210" type="line"/>
      <point x="321" y="210" type="line"/>
      <point x="321" y="195" type="line"/>
    </contour>
    <contour>
      <point x="190" y="55" type="curve" smooth="yes"/>
      <point x="190" y="93"/>
      <point x="219" y="125"/>
      <point x="260" y="125" type="curve" smooth="yes"/>
      <point x="301" y="125"/>
      <point x="330" y="93"/>
      <point x="330" y="55" type="curve" smooth="yes"/>
      <point x="330" y="17"/>
      <point x="301" y="-15"/>
      <point x="260" y="-15" type="curve" smooth="yes"/>
      <point x="219" y="-15"/>
      <point x="190" y="17"/>
    </contour>
    <contour>
      <point x="367" y="549" type="curve" smooth="yes"/>
      <point x="367" y="597"/>
      <point x="329" y="622"/>
      <point x="276" y="622" type="curve" smooth="yes"/>
      <point x="222" y="622"/>
      <point x="171" y="589"/>
      <point x="135" y="530" type="curve"/>
      <point x="64" y="583" type="line"/>
      <point x="110" y="663"/>
      <point x="180" y="710"/>
      <point x="289" y="710" type="curve" smooth="yes"/>
      <point x="394" y="710"/>
      <point x="477" y="650"/>
      <point x="477" y="551" type="curve" smooth="yes"/>
      <point x="477" y="382"/>
      <point x="297" y="426"/>
      <point x="297" y="234" type="curve" smooth="yes"/>
      <point x="297" y="225"/>
      <point x="298" y="206"/>
      <point x="302" y="195" type="curve"/>
      <point x="217" y="195" type="line"/>
      <point x="215" y="213"/>
      <point x="213" y="229"/>
      <point x="213" y="247" type="curve" smooth="yes"/>
      <point x="213" y="457"/>
      <point x="367" y="429"/>
    </contour>
  </outline>
</glyph>
<glyph name="at" format="2">
  <advance width="770"/>
  <unicode hex="0040"/>
  <outline>
    <contour>
      <point x="551" y="129" type="line"/>
      <point x="604" y="33" type="line"/>
      <point x="593" y="28" type="line"/>
      <point x="540" y="124" type="line"/>
    </contour>
    <contour>
      <point x="555" y="505" type="line"/>
      <point x="565" y="520" type="line"/>
      <point x="585" y="520" type="line"/>
      <point x="585" y="505" type="line"/>
    </contour>
    <contour>
      <point x="276" y="320" type="curve" smooth="yes"/>
      <point x="276" y="271"/>
      <point x="305" y="250"/>
      <point x="348" y="250" type="curve" smooth="yes"/>
      <point x="398" y="250"/>
      <point x="445" y="264"/>
      <point x="445" y="370" type="curve" smooth="yes"/>
      <point x="445" y="411"/>
      <point x="418" y="440"/>
      <point x="378" y="440" type="curve" smooth="yes"/>
      <point x="324" y="440"/>
      <point x="276" y="396"/>
    </contour>
    <contour>
      <point x="180" y="312" type="curve" smooth="yes"/>
      <point x="180" y="461"/>
      <point x="286" y="530"/>
      <point x="371" y="530" type="curve" smooth="yes"/>
      <point x="456" y="530"/>
      <point x="501" y="449"/>
      <point x="501" y="370" type="curve" smooth="yes"/>
      <point x="501" y="231"/>
      <point x="423" y="160"/>
      <point x="328" y="160" type="curve" smooth="yes"/>
      <point x="255" y="160"/>
      <point x="180" y="213"/>
    </contour>
    <contour>
      <point x="5" y="320" type="curve" smooth="yes"/>
      <point x="5" y="539"/>
      <point x="181" y="710"/>
      <point x="415" y="710" type="curve" smooth="yes"/>
      <point x="649" y="710"/>
      <point x="765" y="549"/>
      <point x="765" y="390" type="curve" smooth="yes"/>
      <point x="765" y="214"/>
      <point x="631" y="155"/>
      <point x="556" y="155" type="curve" smooth="yes"/>
      <point x="495" y="155"/>
      <point x="456" y="204"/>
      <point x="456" y="270" type="curve"/>
      <point x="439" y="270" type="line"/>
      <point x="475" y="520" type="line"/>
      <point x="565" y="520" type="line"/>
      <point x="534" y="309" type="line" smooth="yes"/>
      <point x="533" y="302"/>
      <point x="532" y="290"/>
      <point x="532" y="282" type="curve" smooth="yes"/>
      <point x="532" y="258"/>
      <point x="538" y="236"/>
      <point x="571" y="236" type="curve" smooth="yes"/>
      <point x="601" y="236"/>
      <point x="675" y="264"/>
      <point x="675" y="390" type="curve" smooth="yes"/>
      <point x="675" y="523"/>
      <point x="593" y="625"/>
      <point x="415" y="625" type="curve" smooth="yes"/>
      <point x="227" y="625"/>
      <point x="95" y="498"/>
      <point x="95" y="320" type="curve" smooth="yes"/>
      <point x="95" y="167"/>
      <point x="187" y="75"/>
      <point x="365" y="75" type="curve" smooth="yes"/>
      <point x="435" y="75"/>
      <point x="501" y="86"/>
      <point x="556" y="117" type="curve"/>
      <point x="592" y="45" type="line"/>
      <point x="545" y="15"/>
      <point x="469" y="-10"/>
      <point x="365" y="-10" type="curve" smooth="yes"/>
      <point x="131" y="-10"/>
      <point x="5" y="121"/>
    </contour>
  </outline>
</glyph>
<glyph name="A" format="2">
  <advance width="784"/>
  <unicode hex="0041"/>
  <anchor x="709" y="0" name="cedilla"/>
  <anchor x="392" y="0" name="bottom"/>
  <anchor x="390" y="700" name="top"/>
  <outline>
    <contour>
      <point x="320" y="685" type="line"/>
      <point x="320" y="700" type="line"/>
      <point x="464" y="700" type="line"/>
      <point x="464" y="685" type="line"/>
    </contour>
    <contour>
      <point x="627" y="0" type="line"/>
      <point x="627" y="15" type="line"/>
      <point x="784" y="15" type="line"/>
      <point x="784" y="0" type="line"/>
    </contour>
    <contour>
      <point x="0" y="0" type="line"/>
      <point x="0" y="15" type="line"/>
      <point x="157" y="15" type="line"/>
      <point x="157" y="0" type="line"/>
    </contour>
    <contour>
      <point x="179" y="200" type="line"/>
      <point x="209" y="290" type="line"/>
      <point x="579" y="290" type="line"/>
      <point x="609" y="200" type="line"/>
    </contour>
    <contour>
      <point x="392" y="581" type="line"/>
      <point x="132" y="0" type="line"/>
      <point x="10" y="0" type="line"/>
      <point x="340" y="700" type="line"/>
      <point x="444" y="700" type="line"/>
      <point x="774" y="0" type="line"/>
      <point x="652" y="0" type="line"/>
    </contour>
  </outline>
</glyph>
<glyph name="B" format="2">
  <advance width="803"/>
  <unicode hex="0042"/>
  <anchor x="337" y="700" name="top"/>
  <anchor x="333" y="0" name="bottom"/>
  <outline>
    <contour>
      <point x="65" y="0" type="line"/>
      <point x="65" y="15" type="line"/>
      <point x="85" y="15" type="line"/>
      <point x="85" y="0" type="line"/>
    </contour>
    <contour>
      <point x="65" y="685" type="line"/>
      <point x="65" y="700" type="line"/>
      <point x="85" y="700" type="line"/>
      <point x="85" y="685" type="line"/>
    </contour>
    <contour>
      <point x="156" y="341" type="line"/>
      <point x="156" y="405" type="line"/>
      <point x="475" y="405" type="line" smooth="yes"/>
      <point x="565" y="405"/>
      <point x="625" y="429"/>
      <point x="625" y="505" type="curve" smooth="yes"/>
      <point x="625" y="584"/>
      <point x="565" y="600"/>
      <point x="485" y="600" type="curve" smooth="yes"/>
      <point x="189" y="600" type="line"/>
      <point x="189" y="100" type="line"/>
      <point x="500" y="100" type="line" smooth="yes"/>
      <point x="590" y="100"/>
      <point x="643" y="119"/>
      <point x="643" y="215" type="curve" smooth="yes"/>
      <point x="643" y="281"/>
      <point x="590" y="315"/>
      <point x="500" y="315" type="curve" smooth="yes"/>
      <point x="156" y="315" type="line"/>
      <point x="156" y="376" type="line"/>
      <point x="525" y="376" type="line" smooth="yes"/>
      <point x="670" y="376"/>
      <point x="753" y="309"/>
      <point x="753" y="190" type="curve" smooth="yes"/>
      <point x="753" y="71"/>
      <point x="670" y="0"/>
      <point x="525" y="0" type="curve" smooth="yes"/>
      <point x="85" y="0" type="line"/>
      <point x="85" y="700" type="line"/>
      <point x="505" y="700" type="line" smooth="yes"/>
      <point x="650" y="700"/>
      <point x="735" y="629"/>
      <point x="735" y="520" type="curve" smooth="yes"/>
      <point x="735" y="374"/>
      <point x="600" y="341"/>
      <point x="495" y="341" type="curve" smooth="yes"/>
    </contour>
  </outline>
</glyph>
<glyph name="C" format="2">
  <advance width="875"/>
  <unicode hex="0043"/>
  <anchor x="475" y="700" name="top"/>
  <anchor x="475" y="0" name="bottom"/>
  <anchor x="475" y="0" name="_top"/>
  <anchor x="475" y="0" name="cedilla"/>
  <outline>
    <contour>
      <point x="758" y="216" type="line"/>
      <point x="835" y="106" type="line"/>
      <point x="822" y="98" type="line"/>
      <point x="745" y="208" type="line"/>
    </contour>
    <contour>
      <point x="800" y="619" type="line"/>
      <point x="813" y="611" type="line"/>
      <point x="737" y="499" type="line"/>
      <point x="724" y="507" type="line"/>
    </contour>
    <contour>
      <point x="165" y="350" type="curve" smooth="yes"/>
      <point x="165" y="202"/>
      <point x="277" y="90"/>
      <point x="475" y="90" type="curve" smooth="yes"/>
      <point x="594" y="90"/>
      <point x="699" y="150"/>
      <point x="758" y="202" type="curve"/>
      <point x="820" y="115" type="line"/>
      <point x="751" y="63"/>
      <point x="637" y="-10"/>
      <point x="475" y="-10" type="curve" smooth="yes"/>
      <point x="212" y="-10"/>
      <point x="50" y="136"/>
      <point x="50" y="350" type="curve" smooth="yes"/>
      <point x="50" y="564"/>
      <point x="212" y="710"/>
      <point x="475" y="710" type="curve" smooth="yes"/>
      <point x="637" y="710"/>
      <point x="741" y="647"/>
      <point x="800" y="605" type="curve"/>
      <point x="739" y="516" type="line"/>
      <point x="690" y="558"/>
      <point x="594" y="610"/>
      <point x="475" y="610" type="curve" smooth="yes"/>
      <point x="277" y="610"/>
      <point x="165" y="498"/>
    </contour>
  </outline>
</glyph>
<glyph name="D" format="2">
  <advance width="852"/>
  <unicode hex="0044"/>
  <anchor x="387" y="700" name="top"/>
  <anchor x="356" y="0" name="bottom"/>
  <anchor x="356" y="0" name="cedilla"/>
  <outline>
    <contour>
      <point x="65" y="0" type="line"/>
      <point x="65" y="15" type="line"/>
      <point x="85" y="15" type="line"/>
      <point x="85" y="0" type="line"/>
    </contour>
    <contour>
      <point x="65" y="685" type="line"/>
      <point x="65" y="700" type="line"/>
      <point x="85" y="700" type="line"/>
      <point x="85" y="685" type="line"/>
    </contour>
    <contour>
      <point x="85" y="700" type="line"/>
      <point x="195" y="700" type="line"/>
      <point x="195" y="0" type="line"/>
      <point x="85" y="0" type="line"/>
    </contour>
    <contour>
      <point x="447" y="0" type="curve" smooth="yes"/>
      <point x="132" y="0" type="line"/>
      <point x="132" y="100" type="line"/>
      <point x="437" y="100" type="line" smooth="yes"/>
      <point x="595" y="100"/>
      <point x="677" y="187"/>
      <point x="677" y="350" type="curve" smooth="yes"/>
      <point x="677" y="513"/>
      <point x="595" y="600"/>
      <point x="437" y="600" type="curve" smooth="yes"/>
      <point x="132" y="600" type="line"/>
      <point x="132" y="700" type="line"/>
      <point x="447" y="700" type="line" smooth="yes"/>
      <point x="651" y="700"/>
      <point x="797" y="569"/>
      <point x="797" y="350" type="curve" smooth="yes"/>
      <point x="797" y="131"/>
      <point x="651" y="0"/>
    </contour>
  </outline>
</glyph>
<glyph name="E" format="2">
  <advance width="746"/>
  <unicode hex="0045"/>
  <anchor x="387" y="700" name="top"/>
  <anchor x="373" y="0" name="bottom"/>
  <anchor x="578" y="0" name="cedilla"/>
  <outline>
    <contour>
      <point x="686" y="130" type="line"/>
      <point x="701" y="130" type="line"/>
      <point x="701" y="-10" type="line"/>
      <point x="686" y="-10" type="line"/>
    </contour>
    <contour>
      <point x="686" y="715" type="line"/>
      <point x="701" y="715" type="line"/>
      <point x="701" y="575" type="line"/>
      <point x="686" y="575" type="line"/>
    </contour>
    <contour>
      <point x="516" y="420" type="line"/>
      <point x="531" y="420" type="line"/>
      <point x="531" y="295" type="line"/>
      <point x="516" y="295" type="line"/>
    </contour>
    <contour>
      <point x="65" y="0" type="line"/>
      <point x="65" y="15" type="line"/>
      <point x="85" y="15" type="line"/>
      <point x="85" y="0" type="line"/>
    </contour>
    <contour>
      <point x="65" y="685" type="line"/>
      <point x="65" y="700" type="line"/>
      <point x="85" y="700" type="line"/>
      <point x="85" y="685" type="line"/>
    </contour>
    <contour>
      <point x="157" y="0" type="line"/>
      <point x="157" y="100" type="line"/>
      <point x="701" y="100" type="line"/>
      <point x="701" y="0" type="line"/>
    </contour>
    <contour>
      <point x="157" y="600" type="line"/>
      <point x="157" y="700" type="line"/>
      <point x="701" y="700" type="line"/>
      <point x="701" y="600" type="line"/>
    </contour>
    <contour>
      <point x="157" y="310" type="line"/>
      <point x="157" y="405" type="line"/>
      <point x="531" y="405" type="line"/>
      <point x="531" y="310" type="line"/>
    </contour>
    <contour>
      <point x="85" y="700" type="line"/>
      <point x="195" y="700" type="line"/>
      <point x="195" y="0" type="line"/>
      <point x="85" y="0" type="line"/>
    </contour>
  </outline>
</glyph>
<glyph name="F" format="2">
  <advance width="731"/>
  <unicode hex="0046"/>
  <anchor x="407" y="700" name="top"/>
  <anchor x="139" y="0" name="bottom"/>
  <outline>
    <contour>
      <point x="686" y="715" type="line"/>
      <point x="701" y="715" type="line"/>
      <point x="701" y="575" type="line"/>
      <point x="686" y="575" type="line"/>
    </contour>
    <contour>
      <point x="526" y="420" type="line"/>
      <point x="541" y="420" type="line"/>
      <point x="541" y="295" type="line"/>
      <point x="526" y="295" type="line"/>
    </contour>
    <contour>
      <point x="65" y="0" type="line"/>
      <point x="65" y="15" type="line"/>
      <point x="225" y="15" type="line"/>
      <point x="225" y="0" type="line"/>
    </contour>
    <contour>
      <point x="65" y="685" type="line"/>
      <point x="65" y="700" type="line"/>
      <point x="85" y="700" type="line"/>
      <point x="85" y="685" type="line"/>
    </contour>
    <contour>
      <point x="157" y="600" type="line"/>
      <point x="157" y="700" type="line"/>
      <point x="701" y="700" type="line"/>
      <point x="701" y="600" type="line"/>
    </contour>
    <contour>
      <point x="157" y="310" type="line"/>
      <point x="157" y="405" type="line"/>
      <point x="541" y="405" type="line"/>
      <point x="541" y="310" type="line"/>
    </contour>
    <contour>
      <point x="85" y="700" type="line"/>
      <point x="195" y="700" type="line"/>
      <point x="195" y="0" type="line"/>
      <point x="85" y="0" type="line"/>
    </contour>
  </outline>
</glyph>
<glyph name="G" format="2">
  <advance width="875"/>
  <unicode hex="0047"/>
  <anchor x="475" y="700" name="top"/>
  <anchor x="475" y="0" name="bottom"/>
  <anchor x="475" y="0" name="cedilla"/>
  <outline>
    <contour>
      <point x="805" y="85" type="line"/>
      <point x="805" y="100" type="line"/>
      <point x="825" y="100" type="line"/>
      <point x="825" y="85" type="line"/>
    </contour>
    <contour>
      <point x="805" y="345" type="line"/>
      <point x="805" y="360" type="line"/>
      <point x="825" y="360" type="line"/>
      <point x="825" y="345" type="line"/>
    </contour>
    <contour>
      <point x="487" y="235" type="line"/>
      <point x="472" y="235" type="line"/>
      <point x="472" y="375" type="line"/>
      <point x="487" y="375" type="line"/>
    </contour>
    <contour>
      <point x="805" y="360" type="line"/>
      <point x="805" y="265" type="line"/>
      <point x="472" y="265" type="line"/>
      <point x="472" y="360" type="line"/>
    </contour>
    <contour>
      <point x="690" y="360" type="line"/>
      <point x="805" y="360" type="line"/>
      <point x="805" y="85" type="line"/>
      <point x="690" y="85" type="line"/>
    </contour>
    <contour>
      <point x="800" y="619" type="line"/>
      <point x="813" y="611" type="line"/>
      <point x="736" y="499" type="line"/>
      <point x="723" y="507" type="line"/>
    </contour>
    <contour>
      <point x="165" y="350" type="curve" smooth="yes"/>
      <point x="165" y="192"/>
      <point x="279" y="90"/>
      <point x="475" y="90" type="curve" smooth="yes"/>
      <point x="594" y="90"/>
      <point x="686" y="130"/>
      <point x="745" y="172" type="curve"/>
      <point x="805" y="85" type="line"/>
      <point x="736" y="43"/>
      <point x="647" y="-10"/>
      <point x="475" y="-10" type="curve" smooth="yes"/>
      <point x="231" y="-10"/>
      <point x="50" y="126"/>
      <point x="50" y="350" type="curve" smooth="yes"/>
      <point x="50" y="574"/>
      <point x="231" y="710"/>
      <point x="475" y="710" type="curve" smooth="yes"/>
      <point x="647" y="710"/>
      <point x="741" y="647"/>
      <point x="800" y="605" type="curve"/>
      <point x="738" y="516" type="line"/>
      <point x="689" y="558"/>
      <point x="594" y="610"/>
      <point x="475" y="610" type="curve" smooth="yes"/>
      <point x="279" y="610"/>
      <point x="165" y="508"/>
    </contour>
  </outline>
</glyph>
<glyph name="H" format="2">
  <advance width="835"/>
  <unicode hex="0048"/>
  <anchor x="419" y="700" name="top"/>
  <anchor x="419" y="0" name="bottom"/>
  <anchor x="142" y="0" name="cedilla"/>
  <outline>
    <contour>
      <point x="615" y="0" type="line"/>
      <point x="615" y="15" type="line"/>
      <point x="770" y="15" type="line"/>
      <point x="770" y="0" type="line"/>
    </contour>
    <contour>
      <point x="615" y="685" type="line"/>
      <point x="615" y="700" type="line"/>
      <point x="770" y="700" type="line"/>
      <point x="770" y="685" type="line"/>
    </contour>
    <contour>
      <point x="635" y="700" type="line"/>
      <point x="750" y="700" type="line"/>
      <point x="750" y="0" type="line"/>
      <point x="635" y="0" type="line"/>
    </contour>
    <contour>
      <point x="65" y="0" type="line"/>
      <point x="65" y="15" type="line"/>
      <point x="220" y="15" type="line"/>
      <point x="220" y="0" type="line"/>
    </contour>
    <contour>
      <point x="65" y="685" type="line"/>
      <point x="65" y="700" type="line"/>
      <point x="220" y="700" type="line"/>
      <point x="220" y="685" type="line"/>
    </contour>
    <contour>
      <point x="147" y="310" type="line"/>
      <point x="147" y="405" type="line"/>
      <point x="720" y="405" type="line"/>
      <point x="720" y="310" type="line"/>
    </contour>
    <contour>
      <point x="85" y="700" type="line"/>
      <point x="200" y="700" type="line"/>
      <point x="200" y="0" type="line"/>
      <point x="85" y="0" type="line"/>
    </contour>
  </outline>
</glyph>
<glyph name="I" format="2">
  <advance width="290"/>
  <unicode hex="0049"/>
  <anchor x="145" y="700" name="top"/>
  <anchor x="145" y="0" name="bottom"/>
  <anchor x="145" y="0" name="cedilla"/>
  <outline>
    <contour>
      <point x="65" y="0" type="line"/>
      <point x="65" y="15" type="line"/>
      <point x="225" y="15" type="line"/>
      <point x="225" y="0" type="line"/>
    </contour>
    <contour>
      <point x="65" y="685" type="line"/>
      <point x="65" y="700" type="line"/>
      <point x="225" y="700" type="line"/>
      <point x="225" y="685" type="line"/>
    </contour>
    <contour>
      <point x="85" y="700" type="line"/>
      <point x="205" y="700" type="line"/>
      <point x="205" y="0" type="line"/>
      <point x="85" y="0" type="line"/>
    </contour>
  </outline>
</glyph>
<glyph name="J" format="2">
  <advance width="622"/>
  <unicode hex="004A"/>
  <anchor x="453" y="700" name="top"/>
  <anchor x="284" y="0" name="bottom"/>
  <outline>
    <contour>
      <point x="80" y="175" type="line"/>
      <point x="93" y="167" type="line"/>
      <point x="13" y="52" type="line"/>
      <point x="0" y="60" type="line"/>
    </contour>
    <contour>
      <point x="402" y="685" type="line"/>
      <point x="402" y="700" type="line"/>
      <point x="562" y="700" type="line"/>
      <point x="562" y="685" type="line"/>
    </contour>
    <contour>
      <point x="80" y="161" type="line"/>
      <point x="114" y="130"/>
      <point x="185" y="80"/>
      <point x="281" y="80" type="curve" smooth="yes"/>
      <point x="371" y="80"/>
      <point x="427" y="106"/>
      <point x="427" y="205" type="curve" smooth="yes"/>
      <point x="427" y="700" type="line"/>
      <point x="542" y="700" type="line"/>
      <point x="542" y="180" type="line" smooth="yes"/>
      <point x="542" y="51"/>
      <point x="428" y="-20"/>
      <point x="274" y="-20" type="curve" smooth="yes"/>
      <point x="171" y="-20"/>
      <point x="61" y="30"/>
      <point x="16" y="70" type="curve"/>
    </contour>
  </outline>
</glyph>
<glyph name="K" format="2">
  <advance width="765"/>
  <unicode hex="004B"/>
  <anchor x="376" y="700" name="top"/>
  <anchor x="370" y="0" name="bottom"/>
  <anchor x="139" y="0" name="cedilla"/>
  <outline>
    <contour>
      <point x="576" y="0" type="line"/>
      <point x="576" y="15" type="line"/>
      <point x="755" y="15" type="line"/>
      <point x="755" y="0" type="line"/>
    </contour>
    <contour>
      <point x="310" y="380" type="line"/>
      <point x="400" y="428" type="line"/>
      <point x="745" y="0" type="line"/>
      <point x="606" y="0" type="line"/>
    </contour>
    <contour>
      <point x="572" y="685" type="line"/>
      <point x="572" y="700" type="line"/>
      <point x="750" y="700" type="line"/>
      <point x="750" y="685" type="line"/>
    </contour>
    <contour>
      <point x="612" y="700" type="line"/>
      <point x="750" y="700" type="line"/>
      <point x="180" y="230" type="line"/>
      <point x="110" y="299" type="line"/>
    </contour>
    <contour>
      <point x="65" y="0" type="line"/>
      <point x="65" y="15" type="line"/>
      <point x="215" y="15" type="line"/>
      <point x="215" y="0" type="line"/>
    </contour>
    <contour>
      <point x="65" y="685" type="line"/>
      <point x="65" y="700" type="line"/>
      <point x="215" y="700" type="line"/>
      <point x="215" y="685" type="line"/>
    </contour>
    <contour>
      <point x="85" y="700" type="line"/>
      <point x="195" y="700" type="line"/>
      <point x="195" y="0" type="line"/>
      <point x="85" y="0" type="line"/>
    </contour>
  </outline>
</glyph>
<glyph name="L" format="2">
  <advance width="720"/>
  <unicode hex="004C"/>
  <anchor x="142" y="700" name="top"/>
  <anchor x="398" y="0" name="bottom"/>
  <anchor x="398" y="0" name="cedilla"/>
  <outline>
    <contour>
      <point x="690" y="130" type="line"/>
      <point x="705" y="130" type="line"/>
      <point x="705" y="-10" type="line"/>
      <point x="690" y="-10" type="line"/>
    </contour>
    <contour>
      <point x="65" y="0" type="line"/>
      <point x="65" y="15" type="line"/>
      <point x="85" y="15" type="line"/>
      <point x="85" y="0" type="line"/>
    </contour>
    <contour>
      <point x="65" y="685" type="line"/>
      <point x="65" y="700" type="line"/>
      <point x="220" y="700" type="line"/>
      <point x="220" y="685" type="line"/>
    </contour>
    <contour>
      <point x="152" y="0" type="line"/>
      <point x="152" y="100" type="line"/>
      <point x="705" y="100" type="line"/>
      <point x="705" y="0" type="line"/>
    </contour>
    <contour>
      <point x="85" y="700" type="line"/>
      <point x="200" y="700" type="line"/>
      <point x="200" y="0" type="line"/>
      <point x="85" y="0" type="line"/>
    </contour>
  </outline>
</glyph>
<glyph name="N" format="2">
  <advance width="860"/>
  <unicode hex="004E"/>
  <anchor x="469" y="700" name="top"/>
  <anchor x="429" y="0" name="bottom"/>
  <outline>
    <contour>
      <point x="193" y="570" type="line"/>
      <point x="195" y="700" type="line"/>
      <point x="225" y="700" type="line"/>
      <point x="665" y="178" type="line"/>
      <point x="655" y="15" type="line"/>
    </contour>
    <contour>
      <point x="625" y="0" type="line"/>
      <point x="625" y="15" type="line"/>
      <point x="795" y="15" type="line"/>
      <point x="795" y="0" type="line"/>
    </contour>
    <contour>
      <point x="645" y="685" type="line"/>
      <point x="645" y="700" type="line"/>
      <point x="795" y="700" type="line"/>
      <point x="795" y="685" type="line"/>
    </contour>
    <contour>
      <point x="665" y="700" type="line"/>
      <point x="775" y="700" type="line"/>
      <point x="775" y="0" type="line"/>
      <point x="655" y="15" type="line"/>
      <point x="665" y="178" type="line"/>
    </contour>
    <contour>
      <point x="65" y="0" type="line"/>
      <point x="65" y="15" type="line"/>
      <point x="215" y="15" type="line"/>
      <point x="215" y="0" type="line"/>
    </contour>
    <contour>
      <point x="65" y="685" type="line"/>
      <point x="65" y="700" type="line"/>
      <point x="265" y="700" type="line"/>
      <point x="265" y="685" type="line"/>
    </contour>
    <contour>
      <point x="85" y="700" type="line"/>
      <point x="195" y="700" type="line"/>
      <point x="195" y="0" type="line"/>
      <point x="85" y="0" type="line"/>
    </contour>
  </outline>
</glyph>
<glyph name="O" format="2">
  <advance width="910"/>
  <unicode hex="004F"/>
  <anchor x="455" y="700" name="top"/>
  <anchor x="455" y="0" name="bottom"/>
  <outline>
    <contour>
      <point x="165" y="350" type="curve" smooth="yes"/>
      <point x="165" y="186"/>
      <point x="302" y="90"/>
      <point x="455" y="90" type="curve" smooth="yes"/>
      <point x="608" y="90"/>
      <point x="745" y="186"/>
      <point x="745" y="350" type="curve" smooth="yes"/>
      <point x="745" y="514"/>
      <point x="608" y="610"/>
      <point x="455" y="610" type="curve" smooth="yes"/>
      <point x="302" y="610"/>
      <point x="165" y="514"/>
    </contour>
    <contour>
      <point x="50" y="350" type="curve" smooth="yes"/>
      <point x="50" y="584"/>
      <point x="236" y="710"/>
      <point x="455" y="710" type="curve" smooth="yes"/>
      <point x="674" y="710"/>
      <point x="860" y="584"/>
      <point x="860" y="350" type="curve" smooth="yes"/>
      <point x="860" y="116"/>
      <point x="674" y="-10"/>
      <point x="455" y="-10" type="curve" smooth="yes"/>
      <point x="236" y="-10"/>
      <point x="50" y="116"/>
    </contour>
  </outline>
</glyph>
<glyph name="P" format="2">
  <advance width="753"/>
  <unicode hex="0050"/>
  <anchor x="343" y="700" name="top"/>
  <anchor x="143" y="0" name="bottom"/>
  <outline>
    <contour>
      <point x="65" y="685" type="line"/>
      <point x="65" y="700" type="line"/>
      <point x="85" y="700" type="line"/>
      <point x="85" y="685" type="line"/>
    </contour>
    <contour>
      <point x="65" y="0" type="line"/>
      <point x="65" y="15" type="line"/>
      <point x="215" y="15" type="line"/>
      <point x="215" y="0" type="line"/>
    </contour>
    <contour>
      <point x="85" y="700" type="line"/>
      <point x="195" y="700" type="line"/>
      <point x="195" y="0" type="line"/>
      <point x="85" y="0" type="line"/>
    </contour>
    <contour>
      <point x="132" y="600" type="line"/>
      <point x="132" y="700" type="line"/>
      <point x="480" y="700" type="line" smooth="yes"/>
      <point x="605" y="700"/>
      <point x="718" y="654"/>
      <point x="718" y="500" type="curve" smooth="yes"/>
      <point x="718" y="347"/>
      <point x="605" y="300"/>
      <point x="480" y="300" type="curve" smooth="yes"/>
      <point x="132" y="300" type="line"/>
      <point x="132" y="400" type="line"/>
      <point x="470" y="400" type="line" smooth="yes"/>
      <point x="559" y="400"/>
      <point x="603" y="434"/>
      <point x="603" y="500" type="curve" smooth="yes"/>
      <point x="603" y="566"/>
      <point x="559" y="600"/>
      <point x="470" y="600" type="curve" smooth="yes"/>
    </contour>
  </outline>
</glyph>
<glyph name="Q" format="2">
  <advance width="870"/>
  <unicode hex="0051"/>
  <anchor x="435" y="700" name="top"/>
  <outline>
    <contour>
      <point x="50" y="350" type="curve" smooth="yes"/>
      <point x="50" y="574"/>
      <point x="216" y="710"/>
      <point x="435" y="710" type="curve" smooth="yes"/>
      <point x="654" y="710"/>
      <point x="820" y="574"/>
      <point x="820" y="350" type="curve" smooth="yes"/>
      <point x="820" y="126"/>
      <point x="654" y="-10"/>
      <point x="435" y="-10" type="curve" smooth="yes"/>
      <point x="216" y="-10"/>
      <point x="50" y="126"/>
    </contour>
    <contour>
      <point x="165" y="350" type="curve" smooth="yes"/>
      <point x="165" y="186"/>
      <point x="272" y="85"/>
      <point x="435" y="85" type="curve" smooth="yes"/>
      <point x="598" y="85"/>
      <point x="705" y="186"/>
      <point x="705" y="350" type="curve" smooth="yes"/>
      <point x="705" y="514"/>
      <point x="598" y="615"/>
      <point x="435" y="615" type="curve" smooth="yes"/>
      <point x="272" y="615"/>
      <point x="165" y="514"/>
    </contour>
    <contour>
      <point x="766" y="2" type="line"/>
      <point x="776" y="-5" type="line"/>
      <point x="690" y="-106" type="line"/>
      <point x="680" y="-99" type="line"/>
    </contour>
    <contour>
      <point x="426" y="192" type="curve" smooth="yes"/>
      <point x="586" y="192"/>
      <point x="593" y="0"/>
      <point x="763" y="-10" type="curve"/>
      <point x="696" y="-91" type="line"/>
      <point x="543" y="-32"/>
      <point x="480" y="135"/>
      <point x="380" y="135" type="curve" smooth="yes"/>
      <point x="351" y="135"/>
      <point x="326" y="122"/>
      <point x="326" y="87" type="curve"/>
      <point x="311" y="87" type="line"/>
      <point x="311" y="137"/>
      <point x="351" y="192"/>
    </contour>
  </outline>
</glyph>
<glyph name="R" format="2">
  <advance width="785"/>
  <unicode hex="0052"/>
  <anchor x="363" y="700" name="top"/>
  <anchor x="398" y="0" name="bottom"/>
  <anchor x="138" y="0" name="cedilla"/>
  <outline>
    <contour>
      <point x="65" y="685" type="line"/>
      <point x="65" y="700" type="line"/>
      <point x="85" y="700" type="line"/>
      <point x="85" y="685" type="line"/>
    </contour>
    <contour>
      <point x="65" y="0" type="line"/>
      <point x="65" y="15" type="line"/>
      <point x="215" y="15" type="line"/>
      <point x="215" y="0" type="line"/>
    </contour>
    <contour>
      <point x="85" y="700" type="line"/>
      <point x="195" y="700" type="line"/>
      <point x="195" y="0" type="line"/>
      <point x="85" y="0" type="line"/>
    </contour>
    <contour>
      <point x="132" y="600" type="line"/>
      <point x="132" y="700" type="line"/>
      <point x="505" y="700" type="line" smooth="yes"/>
      <point x="630" y="700"/>
      <point x="743" y="659"/>
      <point x="743" y="505" type="curve" smooth="yes"/>
      <point x="743" y="352"/>
      <point x="630" y="315"/>
      <point x="505" y="315" type="curve" smooth="yes"/>
      <point x="132" y="315" type="line"/>
      <point x="132" y="410" type="line"/>
      <point x="495" y="410" type="line" smooth="yes"/>
      <point x="584" y="410"/>
      <point x="628" y="439"/>
      <point x="628" y="505" type="curve" smooth="yes"/>
      <point x="628" y="571"/>
      <point x="584" y="600"/>
      <point x="495" y="600" type="curve" smooth="yes"/>
    </contour>
    <contour>
      <point x="595" y="0" type="line"/>
      <point x="595" y="15" type="line"/>
      <point x="770" y="15" type="line"/>
      <point x="770" y="0" type="line"/>
    </contour>
    <contour>
      <point x="375" y="360" type="line"/>
      <point x="495" y="360" type="line"/>
      <point x="760" y="0" type="line"/>
      <point x="625" y="0" type="line"/>
    </contour>
  </outline>
</glyph>
<glyph name="S" format="2">
  <advance width="764"/>
  <unicode hex="0053"/>
  <anchor x="380" y="700" name="top"/>
  <anchor x="410" y="0" name="bottom"/>
  <anchor x="410" y="0" name="cedilla"/>
  <outline>
    <contour>
      <point x="110" y="207" type="line"/>
      <point x="123" y="199" type="line"/>
      <point x="43" y="83" type="line"/>
      <point x="30" y="91" type="line"/>
    </contour>
    <contour>
      <point x="713" y="639" type="line"/>
      <point x="726" y="631" type="line"/>
      <point x="651" y="522" type="line"/>
      <point x="638" y="530" type="line"/>
    </contour>
    <contour>
      <point x="108" y="189" type="line"/>
      <point x="174" y="145"/>
      <point x="261" y="88"/>
      <point x="405" y="88" type="curve" smooth="yes"/>
      <point x="550" y="88"/>
      <point x="618" y="131"/>
      <point x="618" y="196" type="curve" smooth="yes"/>
      <point x="618" y="261"/>
      <point x="558.918" y="293.311"/>
      <point x="389" y="305" type="curve" smooth="yes"/>
      <point x="175.069" y="319.718"/>
      <point x="62" y="382"/>
      <point x="62" y="509" type="curve" smooth="yes"/>
      <point x="62" y="643"/>
      <point x="201" y="720"/>
      <point x="380" y="720" type="curve" smooth="yes"/>
      <point x="543" y="720"/>
      <point x="648" y="669"/>
      <point x="713" y="625" type="curve"/>
      <point x="651" y="541" type="line"/>
      <point x="604" y="581"/>
      <point x="492" y="625"/>
      <point x="380" y="625" type="curve" smooth="yes"/>
      <point x="254" y="625"/>
      <point x="172" y="588"/>
      <point x="172" y="516" type="curve" smooth="yes"/>
      <point x="172" y="440"/>
      <point x="258.201" y="417.491"/>
      <point x="418" y="405" type="curve" smooth="yes"/>
      <point x="621.59" y="389.086"/>
      <point x="734" y="322"/>
      <point x="734" y="200" type="curve" smooth="yes"/>
      <point x="734" y="72"/>
      <point x="600.586" y="-12.8975"/>
      <point x="400" y="-10" type="curve" smooth="yes"/>
      <point x="225.659" y="-7.48164"/>
      <point x="105" y="57.1401"/>
      <point x="50" y="102" type="curve"/>
    </contour>
  </outline>
</glyph>
<glyph name="T" format="2">
  <advance width="685"/>
  <unicode hex="0054"/>
  <anchor x="341" y="700" name="top"/>
  <anchor x="344" y="0" name="bottom"/>
  <anchor x="344" y="0" name="cedilla"/>
  <outline>
    <contour>
      <point x="10" y="715" type="line"/>
      <point x="25" y="715" type="line"/>
      <point x="25" y="580" type="line"/>
      <point x="10" y="580" type="line"/>
    </contour>
    <contour>
      <point x="660" y="715" type="line"/>
      <point x="675" y="715" type="line"/>
      <point x="675" y="580" type="line"/>
      <point x="660" y="580" type="line"/>
    </contour>
    <contour>
      <point x="10" y="605" type="line"/>
      <point x="10" y="700" type="line"/>
      <point x="675" y="700" type="line"/>
      <point x="675" y="605" type="line"/>
    </contour>
    <contour>
      <point x="255" y="0" type="line"/>
      <point x="255" y="15" type="line"/>
      <point x="430" y="15" type="line"/>
      <point x="430" y="0" type="line"/>
    </contour>
    <contour>
      <point x="285" y="700" type="line"/>
      <point x="400" y="700" type="line"/>
      <point x="400" y="0" type="line"/>
      <point x="285" y="0" type="line"/>
    </contour>
  </outline>
</glyph>
<glyph name="U" format="2">
  <advance width="810"/>
  <unicode hex="0055"/>
  <anchor x="409" y="700" name="top"/>
  <anchor x="405" y="0" name="bottom"/>
  <anchor x="405" y="0" name="cedilla"/>
  <outline>
    <contour>
      <point x="600" y="685" type="line"/>
      <point x="600" y="700" type="line"/>
      <point x="755" y="700" type="line"/>
      <point x="755" y="685" type="line"/>
    </contour>
    <contour>
      <point x="55" y="685" type="line"/>
      <point x="55" y="700" type="line"/>
      <point x="210" y="700" type="line"/>
      <point x="210" y="685" type="line"/>
    </contour>
    <contour>
      <point x="75" y="700" type="line"/>
      <point x="190" y="700" type="line"/>
      <point x="190" y="242" type="line" smooth="yes"/>
      <point x="190" y="136"/>
      <point x="275" y="90"/>
      <point x="405" y="90" type="curve" smooth="yes"/>
      <point x="545" y="90"/>
      <point x="620" y="136"/>
      <point x="620" y="242" type="curve" smooth="yes"/>
      <point x="620" y="700" type="line"/>
      <point x="735" y="700" type="line"/>
      <point x="735" y="230" type="line" smooth="yes"/>
      <point x="735" y="61"/>
      <point x="580" y="-10"/>
      <point x="405" y="-10" type="curve" smooth="yes"/>
      <point x="230" y="-10"/>
      <point x="75" y="61"/>
      <point x="75" y="230" type="curve" smooth="yes"/>
    </contour>
  </outline>
</glyph>
<glyph name="V" format="2">
  <advance width="774"/>
  <unicode hex="0056"/>
  <anchor x="387" y="700" name="top"/>
  <anchor x="388" y="0" name="bottom"/>
  <outline>
    <contour>
      <point x="459" y="15" type="line"/>
      <point x="459" y="0" type="line"/>
      <point x="315" y="0" type="line"/>
      <point x="315" y="15" type="line"/>
    </contour>
    <contour>
      <point x="167" y="700" type="line"/>
      <point x="167" y="685" type="line"/>
      <point x="5" y="685" type="line"/>
      <point x="5" y="700" type="line"/>
    </contour>
    <contour>
      <point x="769" y="700" type="line"/>
      <point x="769" y="685" type="line"/>
      <point x="607" y="685" type="line"/>
      <point x="607" y="700" type="line"/>
    </contour>
    <contour>
      <point x="387" y="124" type="line"/>
      <point x="632" y="700" type="line"/>
      <point x="759" y="700" type="line"/>
      <point x="439" y="0" type="line"/>
      <point x="335" y="0" type="line"/>
      <point x="15" y="700" type="line"/>
      <point x="142" y="700" type="line"/>
    </contour>
  </outline>
</glyph>
<glyph name="W" format="2">
  <advance width="1140"/>
  <unicode hex="0057"/>
  <anchor x="568" y="700" name="top"/>
  <anchor x="568" y="0" name="bottom"/>
  <outline>
    <contour>
      <point x="895" y="15" type="line"/>
      <point x="895" y="0" type="line"/>
      <point x="745" y="0" type="line"/>
      <point x="745" y="15" type="line"/>
    </contour>
    <contour>
      <point x="1135" y="700" type="line"/>
      <point x="1135" y="685" type="line"/>
      <point x="985" y="685" type="line"/>
      <point x="985" y="700" type="line"/>
    </contour>
    <contour>
      <point x="820" y="131" type="line"/>
      <point x="1010" y="700" type="line"/>
      <point x="1125" y="700" type="line"/>
      <point x="875" y="0" type="line"/>
      <point x="765" y="0" type="line"/>
      <point x="525" y="650" type="line"/>
      <point x="515" y="700" type="line"/>
      <point x="625" y="700" type="line"/>
    </contour>
    <contour>
      <point x="395" y="15" type="line"/>
      <point x="395" y="0" type="line"/>
      <point x="245" y="0" type="line"/>
      <point x="245" y="15" type="line"/>
    </contour>
    <contour>
      <point x="155" y="700" type="line"/>
      <point x="155" y="685" type="line"/>
      <point x="5" y="685" type="line"/>
      <point x="5" y="700" type="line"/>
    </contour>
    <contour>
      <point x="650" y="700" type="line"/>
      <point x="650" y="685" type="line"/>
      <point x="490" y="685" type="line"/>
      <point x="490" y="700" type="line"/>
    </contour>
    <contour>
      <point x="320" y="131" type="line"/>
      <point x="515" y="700" type="line"/>
      <point x="625" y="700" type="line"/>
      <point x="615" y="650" type="line"/>
      <point x="375" y="0" type="line"/>
      <point x="265" y="0" type="line"/>
      <point x="15" y="700" type="line"/>
      <point x="130" y="700" type="line"/>
    </contour>
  </outline>
</glyph>
<glyph name="X" format="2">
  <advance width="685"/>
  <unicode hex="0058"/>
  <anchor x="346" y="700" name="top"/>
  <anchor x="343" y="0" name="bottom"/>
  <outline>
    <contour>
      <point x="685" y="15" type="line"/>
      <point x="685" y="0" type="line"/>
      <point x="520" y="0" type="line"/>
      <point x="520" y="15" type="line"/>
    </contour>
    <contour>
      <point x="165" y="15" type="line"/>
      <point x="165" y="0" type="line"/>
      <point x="0" y="0" type="line"/>
      <point x="0" y="15" type="line"/>
    </contour>
    <contour>
      <point x="680" y="700" type="line"/>
      <point x="680" y="685" type="line"/>
      <point x="505" y="685" type="line"/>
      <point x="505" y="700" type="line"/>
    </contour>
    <contour>
      <point x="190" y="700" type="line"/>
      <point x="190" y="685" type="line"/>
      <point x="15" y="685" type="line"/>
      <point x="15" y="700" type="line"/>
    </contour>
    <contour>
      <point x="535" y="700" type="line"/>
      <point x="675" y="700" type="line"/>
      <point x="413" y="362" type="line"/>
      <point x="680" y="0" type="line"/>
      <point x="550" y="0" type="line"/>
      <point x="345" y="290" type="line"/>
      <point x="135" y="0" type="line"/>
      <point x="5" y="0" type="line"/>
      <point x="278" y="362" type="line"/>
      <point x="20" y="700" type="line"/>
      <point x="160" y="700" type="line"/>
      <point x="346" y="434" type="line"/>
    </contour>
  </outline>
</glyph>
<glyph name="Y" format="2">
  <advance width="701"/>
  <unicode hex="0059"/>
  <anchor x="348" y="700" name="top"/>
  <anchor x="348" y="0" name="bottom"/>
  <outline>
    <contour>
      <point x="711" y="700" type="line"/>
      <point x="711" y="685" type="line"/>
      <point x="536" y="685" type="line"/>
      <point x="536" y="700" type="line"/>
    </contour>
    <contour>
      <point x="165" y="700" type="line"/>
      <point x="165" y="685" type="line"/>
      <point x="-10" y="685" type="line"/>
      <point x="-10" y="700" type="line"/>
    </contour>
    <contour>
      <point x="261" y="0" type="line"/>
      <point x="261" y="15" type="line"/>
      <point x="435" y="15" type="line"/>
      <point x="435" y="0" type="line"/>
    </contour>
    <contour>
      <point x="571" y="700" type="line"/>
      <point x="706" y="700" type="line"/>
      <point x="405" y="302" type="line"/>
      <point x="405" y="0" type="line"/>
      <point x="291" y="0" type="line"/>
      <point x="291" y="301" type="line"/>
      <point x="-5" y="700" type="line"/>
      <point x="135" y="700" type="line"/>
      <point x="348" y="396" type="line"/>
    </contour>
  </outline>
</glyph>
<glyph name="Z" format="2">
  <advance width="744"/>
  <unicode hex="005A"/>
  <anchor x="338" y="700" name="top"/>
  <anchor x="393" y="0" name="bottom"/>
  <outline>
    <contour>
      <point x="670" y="125" type="line"/>
      <point x="685" y="125" type="line"/>
      <point x="685" y="-15" type="line"/>
      <point x="670" y="-15" type="line"/>
    </contour>
    <contour>
      <point x="40" y="715" type="line"/>
      <point x="55" y="715" type="line"/>
      <point x="55" y="575" type="line"/>
      <point x="40" y="575" type="line"/>
    </contour>
    <contour>
      <point x="40" y="600" type="line"/>
      <point x="40" y="700" type="line"/>
      <point x="699" y="700" type="line"/>
      <point x="699" y="685" type="line"/>
      <point x="230" y="100" type="line"/>
      <point x="685" y="100" type="line"/>
      <point x="685" y="0" type="line"/>
      <point x="30" y="0" type="line"/>
      <point x="30" y="15" type="line"/>
      <point x="502" y="600" type="line"/>
    </contour>
  </outline>
</glyph>
<glyph name="bracketleft" format="2">
  <advance width="331"/>
  <unicode hex="005B"/>
  <outline>
    <contour>
      <point x="80" y="-220" type="line"/>
      <point x="80" y="-205" type="line"/>
      <point x="100" y="-205" type="line"/>
      <point x="100" y="-220" type="line"/>
    </contour>
    <contour>
      <point x="80" y="765" type="line"/>
      <point x="80" y="780" type="line"/>
      <point x="100" y="780" type="line"/>
      <point x="100" y="765" type="line"/>
    </contour>
    <contour>
      <point x="296" y="-100" type="line"/>
      <point x="311" y="-100" type="line"/>
      <point x="311" y="-240" type="line"/>
      <point x="296" y="-240" type="line"/>
    </contour>
    <contour>
      <point x="296" y="800" type="line"/>
      <point x="311" y="800" type="line"/>
      <point x="311" y="660" type="line"/>
      <point x="296" y="660" type="line"/>
    </contour>
    <contour>
      <point x="210" y="680" type="line"/>
      <point x="210" y="-120" type="line"/>
      <point x="311" y="-120" type="line"/>
      <point x="311" y="-220" type="line"/>
      <point x="100" y="-220" type="line"/>
      <point x="100" y="780" type="line"/>
      <point x="311" y="780" type="line"/>
      <point x="311" y="680" type="line"/>
    </contour>
  </outline>
</glyph>
<glyph name="bracketright" format="2">
  <advance width="331"/>
  <unicode hex="005D"/>
  <outline>
    <contour>
      <point x="251" y="780" type="line"/>
      <point x="251" y="765" type="line"/>
      <point x="231" y="765" type="line"/>
      <point x="231" y="780" type="line"/>
    </contour>
    <contour>
      <point x="251" y="-205" type="line"/>
      <point x="251" y="-220" type="line"/>
      <point x="231" y="-220" type="line"/>
      <point x="231" y="-205" type="line"/>
    </contour>
    <contour>
      <point x="35" y="660" type="line"/>
      <point x="20" y="660" type="line"/>
      <point x="20" y="800" type="line"/>
      <point x="35" y="800" type="line"/>
    </contour>
    <contour>
      <point x="35" y="-240" type="line"/>
      <point x="20" y="-240" type="line"/>
      <point x="20" y="-100" type="line"/>
      <point x="35" y="-100" type="line"/>
    </contour>
    <contour>
      <point x="121" y="-120" type="line"/>
      <point x="121" y="680" type="line"/>
      <point x="20" y="680" type="line"/>
      <point x="20" y="780" type="line"/>
      <point x="231" y="780" type="line"/>
      <point x="231" y="-220" type="line"/>
      <point x="20" y="-220" type="line"/>
      <point x="20" y="-120" type="line"/>
    </contour>
  </outline>
</glyph>
<glyph name="asciicircum" format="2">
  <advance width="570"/>
  <unicode hex="005E"/>
  <outline>
    <contour>
      <point x="535" y="475" type="line"/>
      <point x="535" y="460" type="line"/>
      <point x="375" y="460" type="line"/>
      <point x="375" y="475" type="line"/>
    </contour>
    <contour>
      <point x="195" y="475" type="line"/>
      <point x="195" y="460" type="line"/>
      <point x="35" y="460" type="line"/>
      <point x="35" y="475" type="line"/>
    </contour>
    <contour>
      <point x="355" y="710" type="line"/>
      <point x="355" y="695" type="line"/>
      <point x="215" y="695" type="line"/>
      <point x="215" y="710" type="line"/>
    </contour>
    <contour>
      <point x="285" y="621" type="line"/>
      <point x="165" y="460" type="line"/>
      <point x="45" y="460" type="line"/>
      <point x="245" y="710" type="line"/>
      <point x="325" y="710" type="line"/>
      <point x="525" y="460" type="line"/>
      <point x="405" y="460" type="line"/>
    </contour>
  </outline>
</glyph>
<glyph name="grave" format="2">
  <advance width="375"/>
  <unicode hex="0060"/>
  <outline>
    <contour>
      <point x="317" y="570" type="line"/>
      <point x="327" y="559" type="line"/>
      <point x="241" y="491" type="line"/>
      <point x="231" y="502" type="line"/>
    </contour>
    <contour>
      <point x="166" y="730" type="line"/>
      <point x="176" y="719" type="line"/>
      <point x="68" y="640" type="line"/>
      <point x="58" y="651" type="line"/>
    </contour>
    <contour>
      <point x="71" y="656" type="line"/>
      <point x="160" y="715" type="line"/>
      <point x="310" y="555" type="line"/>
      <point x="251" y="506" type="line"/>
    </contour>
  </outline>
</glyph>
<glyph name="braceleft" format="2">
  <advance width="341"/>
  <unicode hex="007B"/>
  <outline>
    <contour>
      <point x="35" y="355" type="line"/>
      <point x="50" y="355" type="line"/>
      <point x="50" y="225" type="line"/>
      <point x="35" y="225" type="line"/>
    </contour>
    <contour>
      <point x="276" y="-90" type="line"/>
      <point x="291" y="-90" type="line"/>
      <point x="291" y="-220" type="line"/>
      <point x="276" y="-220" type="line"/>
    </contour>
    <contour>
      <point x="276" y="800" type="line"/>
      <point x="291" y="800" type="line"/>
      <point x="291" y="670" type="line"/>
      <point x="276" y="670" type="line"/>
    </contour>
    <contour>
      <point x="208" y="640" type="curve" smooth="yes"/>
      <point x="208" y="490" type="line" smooth="yes"/>
      <point x="208" y="371"/>
      <point x="174" y="270"/>
      <point x="65" y="270" type="curve"/>
      <point x="65" y="310" type="line"/>
      <point x="174" y="310"/>
      <point x="208" y="209"/>
      <point x="208" y="90" type="curve" smooth="yes"/>
      <point x="208" y="-60" type="line" smooth="yes"/>
      <point x="208" y="-86"/>
      <point x="226" y="-110"/>
      <point x="256" y="-110" type="curve" smooth="yes"/>
      <point x="291" y="-110" type="line"/>
      <point x="291" y="-200" type="line"/>
      <point x="231" y="-200" type="line" smooth="yes"/>
      <point x="187" y="-200"/>
      <point x="98" y="-159"/>
      <point x="98" y="-60" type="curve" smooth="yes"/>
      <point x="98" y="150" type="line" smooth="yes"/>
      <point x="98" y="216"/>
      <point x="80" y="235"/>
      <point x="50" y="245" type="curve"/>
      <point x="50" y="335" type="line"/>
      <point x="80" y="345"/>
      <point x="98" y="364"/>
      <point x="98" y="430" type="curve" smooth="yes"/>
      <point x="98" y="640" type="line" smooth="yes"/>
      <point x="98" y="739"/>
      <point x="187" y="780"/>
      <point x="231" y="780" type="curve" smooth="yes"/>
      <point x="291" y="780" type="line"/>
      <point x="291" y="690" type="line"/>
      <point x="256" y="690" type="line" smooth="yes"/>
      <point x="226" y="690"/>
      <point x="208" y="666"/>
    </contour>
  </outline>
</glyph>
<glyph name="bar" format="2">
  <advance width="304"/>
  <unicode hex="007C"/>
  <outline>
    <contour>
      <point x="80" y="-220" type="line"/>
      <point x="80" y="-205" type="line"/>
      <point x="224" y="-205" type="line"/>
      <point x="224" y="-220" type="line"/>
    </contour>
    <contour>
      <point x="80" y="765" type="line"/>
      <point x="80" y="780" type="line"/>
      <point x="224" y="780" type="line"/>
      <point x="224" y="765" type="line"/>
    </contour>
    <contour>
      <point x="100" y="780" type="line"/>
      <point x="204" y="780" type="line"/>
      <point x="204" y="-220" type="line"/>
      <point x="100" y="-220" type="line"/>
    </contour>
  </outline>
</glyph>
<glyph name="braceright" format="2">
  <advance width="341"/>
  <unicode hex="007D"/>
  <outline>
    <contour>
      <point x="306" y="225" type="line"/>
      <point x="291" y="225" type="line"/>
      <point x="291" y="355" type="line"/>
      <point x="306" y="355" type="line"/>
    </contour>
    <contour>
      <point x="65" y="670" type="line"/>
      <point x="50" y="670" type="line"/>
      <point x="50" y="800" type="line"/>
      <point x="65" y="800" type="line"/>
    </contour>
    <contour>
      <point x="65" y="-220" type="line"/>
      <point x="50" y="-220" type="line"/>
      <point x="50" y="-90" type="line"/>
      <point x="65" y="-90" type="line"/>
    </contour>
    <contour>
      <point x="133" y="-60" type="curve" smooth="yes"/>
      <point x="133" y="90" type="line" smooth="yes"/>
      <point x="133" y="209"/>
      <point x="167" y="310"/>
      <point x="276" y="310" type="curve"/>
      <point x="276" y="270" type="line"/>
      <point x="167" y="270"/>
      <point x="133" y="371"/>
      <point x="133" y="490" type="curve" smooth="yes"/>
      <point x="133" y="640" type="line" smooth="yes"/>
      <point x="133" y="666"/>
      <point x="115" y="690"/>
      <point x="85" y="690" type="curve" smooth="yes"/>
      <point x="50" y="690" type="line"/>
      <point x="50" y="780" type="line"/>
      <point x="110" y="780" type="line" smooth="yes"/>
      <point x="154" y="780"/>
      <point x="243" y="739"/>
      <point x="243" y="640" type="curve" smooth="yes"/>
      <point x="243" y="430" type="line" smooth="yes"/>
      <point x="243" y="364"/>
      <point x="261" y="345"/>
      <point x="291" y="335" type="curve"/>
      <point x="291" y="245" type="line"/>
      <point x="261" y="235"/>
      <point x="243" y="216"/>
      <point x="243" y="150" type="curve" smooth="yes"/>
      <point x="243" y="-60" type="line" smooth="yes"/>
      <point x="243" y="-159"/>
      <point x="154" y="-200"/>
      <point x="110" y="-200" type="curve" smooth="yes"/>
      <point x="50" y="-200" type="line"/>
      <point x="50" y="-110" type="line"/>
      <point x="85" y="-110" type="line" smooth="yes"/>
      <point x="115" y="-110"/>
      <point x="133" y="-86"/>
    </contour>
  </outline>
</glyph>
<glyph name="asciitilde" format="2">
  <advance width="575"/>
  <unicode hex="007E"/>
  <outline>
    <contour>
      <point x="398" y="312" type="line"/>
      <point x="398" y="327" type="line"/>
      <point x="532" y="327" type="line"/>
      <point x="532" y="312" type="line"/>
    </contour>
    <contour>
      <point x="40" y="170" type="line"/>
      <point x="40" y="185" type="line"/>
      <point x="174" y="185" type="line"/>
      <point x="174" y="170" type="line"/>
    </contour>
    <contour>
      <point x="157" y="176" type="curve"/>
      <point x="63" y="181" type="line"/>
      <point x="61" y="188"/>
      <point x="60" y="206"/>
      <point x="60" y="215" type="curve" smooth="yes"/>
      <point x="60" y="236"/>
      <point x="66" y="271"/>
      <point x="84" y="295" type="curve" smooth="yes"/>
      <point x="110" y="330"/>
      <point x="147" y="337"/>
      <point x="189" y="337" type="curve" smooth="yes"/>
      <point x="228" y="337"/>
      <point x="270.41" y="318.848"/>
      <point x="307" y="294" type="curve" smooth="yes"/>
      <point x="335.128" y="274.899"/>
      <point x="362" y="257"/>
      <point x="390" y="257" type="curve" smooth="yes"/>
      <point x="414" y="257"/>
      <point x="422" y="264"/>
      <point x="422" y="291" type="curve" smooth="yes"/>
      <point x="422" y="299"/>
      <point x="419" y="313"/>
      <point x="415" y="323" type="curve"/>
      <point x="511" y="318" type="line"/>
      <point x="513" y="310"/>
      <point x="515" y="290"/>
      <point x="515" y="280" type="curve" smooth="yes"/>
      <point x="515" y="260"/>
      <point x="510" y="222"/>
      <point x="493" y="199" type="curve" smooth="yes"/>
      <point x="467" y="165"/>
      <point x="435" y="162"/>
      <point x="399" y="162" type="curve" smooth="yes"/>
      <point x="365" y="162"/>
      <point x="322" y="184"/>
      <point x="289" y="205" type="curve" smooth="yes"/>
      <point x="257.108" y="225.295"/>
      <point x="218" y="243"/>
      <point x="193" y="243" type="curve" smooth="yes"/>
      <point x="162" y="243"/>
      <point x="148" y="228"/>
      <point x="148" y="203" type="curve" smooth="yes"/>
      <point x="148" y="196"/>
      <point x="151" y="184"/>
    </contour>
  </outline>
</glyph>
<glyph name="cent" format="2">
  <advance width="835"/>
  <unicode hex="00A2"/>
  <outline>
    <contour>
      <point x="465" y="740" type="line"/>
      <point x="505" y="740" type="line"/>
      <point x="505" y="-80" type="line"/>
      <point x="465" y="-80" type="line"/>
    </contour>
    <contour>
      <point x="325" y="740" type="line"/>
      <point x="365" y="740" type="line"/>
      <point x="365" y="-80" type="line"/>
      <point x="325" y="-80" type="line"/>
    </contour>
    <contour>
      <point x="668" y="216" type="line"/>
      <point x="745" y="106" type="line"/>
      <point x="732" y="98" type="line"/>
      <point x="655" y="208" type="line"/>
    </contour>
    <contour>
      <point x="710" y="619" type="line"/>
      <point x="723" y="611" type="line"/>
      <point x="647" y="499" type="line"/>
      <point x="634" y="507" type="line"/>
    </contour>
    <contour>
      <point x="155" y="350" type="curve" smooth="yes"/>
      <point x="155" y="202"/>
      <point x="247" y="90"/>
      <point x="425" y="90" type="curve" smooth="yes"/>
      <point x="524" y="90"/>
      <point x="609" y="150"/>
      <point x="668" y="202" type="curve"/>
      <point x="730" y="115" type="line"/>
      <point x="661" y="63"/>
      <point x="567" y="-10"/>
      <point x="425" y="-10" type="curve" smooth="yes"/>
      <point x="182" y="-10"/>
      <point x="40" y="136"/>
      <point x="40" y="350" type="curve" smooth="yes"/>
      <point x="40" y="564"/>
      <point x="182" y="710"/>
      <point x="425" y="710" type="curve" smooth="yes"/>
      <point x="567" y="710"/>
      <point x="651" y="647"/>
      <point x="710" y="605" type="curve"/>
      <point x="649" y="516" type="line"/>
      <point x="600" y="558"/>
      <point x="524" y="610"/>
      <point x="425" y="610" type="curve" smooth="yes"/>
      <point x="247" y="610"/>
      <point x="155" y="498"/>
    </contour>
  </outline>
</glyph>
<glyph name="sterling" format="2">
  <advance width="736"/>
  <unicode hex="00A3"/>
  <outline>
    <contour>
      <point x="50" y="399" type="line"/>
      <point x="50" y="439" type="line"/>
      <point x="520" y="439" type="line"/>
      <point x="520" y="399" type="line"/>
    </contour>
    <contour>
      <point x="50" y="279" type="line"/>
      <point x="50" y="319" type="line"/>
      <point x="520" y="319" type="line"/>
      <point x="520" y="279" type="line"/>
    </contour>
    <contour>
      <point x="587" y="530" type="line"/>
      <point x="574" y="538" type="line"/>
      <point x="649" y="648" type="line"/>
      <point x="662" y="640" type="line"/>
    </contour>
    <contour>
      <point x="671" y="135" type="line"/>
      <point x="686" y="135" type="line"/>
      <point x="686" y="-15" type="line"/>
      <point x="671" y="-15" type="line"/>
    </contour>
    <contour>
      <point x="21" y="70" type="line"/>
      <point x="32" y="80" type="line"/>
      <point x="119" y="-25" type="line"/>
      <point x="108" y="-35" type="line"/>
    </contour>
    <contour>
      <point x="587" y="544" type="line"/>
      <point x="553" y="575"/>
      <point x="487" y="620"/>
      <point x="371" y="620" type="curve" smooth="yes"/>
      <point x="251" y="620"/>
      <point x="195" y="580"/>
      <point x="195" y="505" type="curve" smooth="yes"/>
      <point x="195" y="402"/>
      <point x="259" y="391"/>
      <point x="259" y="279" type="curve" smooth="yes"/>
      <point x="259" y="203"/>
      <point x="207" y="117"/>
      <point x="124" y="50" type="curve"/>
      <point x="109" y="60" type="line"/>
      <point x="170" y="91"/>
      <point x="211" y="147"/>
      <point x="297" y="147" type="curve" smooth="yes"/>
      <point x="423" y="147"/>
      <point x="436" y="87"/>
      <point x="553" y="87" type="curve" smooth="yes"/>
      <point x="588" y="87"/>
      <point x="645" y="96"/>
      <point x="686" y="110" type="curve"/>
      <point x="686" y="0" type="line"/>
      <point x="645" y="-14"/>
      <point x="578" y="-23"/>
      <point x="543" y="-23" type="curve" smooth="yes"/>
      <point x="406" y="-23"/>
      <point x="373" y="42"/>
      <point x="247" y="42" type="curve" smooth="yes"/>
      <point x="201" y="42"/>
      <point x="157" y="23"/>
      <point x="109" y="-15" type="curve"/>
      <point x="40" y="70" type="line"/>
      <point x="93" y="127"/>
      <point x="152" y="203"/>
      <point x="152" y="259" type="curve" smooth="yes"/>
      <point x="152" y="371"/>
      <point x="80" y="395"/>
      <point x="80" y="520" type="curve" smooth="yes"/>
      <point x="80" y="650"/>
      <point x="194" y="720"/>
      <point x="378" y="720" type="curve" smooth="yes"/>
      <point x="511" y="720"/>
      <point x="601" y="670"/>
      <point x="646" y="630" type="curve"/>
    </contour>
  </outline>
</glyph>
<glyph name="yen" format="2">
  <advance width="731"/>
  <unicode hex="00A5"/>
  <outline>
    <contour>
      <point x="726" y="700" type="line"/>
      <point x="726" y="685" type="line"/>
      <point x="551" y="685" type="line"/>
      <point x="551" y="700" type="line"/>
    </contour>
    <contour>
      <point x="180" y="700" type="line"/>
      <point x="180" y="685" type="line"/>
      <point x="5" y="685" type="line"/>
      <point x="5" y="700" type="line"/>
    </contour>
    <contour>
      <point x="276" y="0" type="line"/>
      <point x="276" y="15" type="line"/>
      <point x="450" y="15" type="line"/>
      <point x="450" y="0" type="line"/>
    </contour>
    <contour>
      <point x="586" y="700" type="line"/>
      <point x="721" y="700" type="line"/>
      <point x="420" y="302" type="line"/>
      <point x="420" y="0" type="line"/>
      <point x="306" y="0" type="line"/>
      <point x="306" y="301" type="line"/>
      <point x="10" y="700" type="line"/>
      <point x="150" y="700" type="line"/>
      <point x="363" y="396" type="line"/>
    </contour>
    <contour>
      <point x="106" y="321" type="line"/>
      <point x="106" y="361" type="line"/>
      <point x="620" y="361" type="line"/>
      <point x="620" y="321" type="line"/>
    </contour>
    <contour>
      <point x="106" y="201" type="line"/>
      <point x="106" y="241" type="line"/>
      <point x="620" y="241" type="line"/>
      <point x="620" y="201" type="line"/>
    </contour>
  </outline>
</glyph>
<glyph name="guillemotleft" format="2">
  <advance width="522"/>
  <unicode hex="00AB"/>
  <outline>
    <contour>
      <point x="391" y="4" type="line"/>
      <point x="479" y="75" type="line"/>
      <point x="487" y="66" type="line"/>
      <point x="399" y="-5" type="line"/>
    </contour>
    <contour>
      <point x="213" y="4" type="line"/>
      <point x="301" y="75" type="line"/>
      <point x="309" y="66" type="line"/>
      <point x="221" y="-5" type="line"/>
    </contour>
    <contour>
      <point x="391" y="506" type="line"/>
      <point x="399" y="515" type="line"/>
      <point x="487" y="444" type="line"/>
      <point x="479" y="435" type="line"/>
    </contour>
    <contour>
      <point x="213" y="506" type="line"/>
      <point x="221" y="515" type="line"/>
      <point x="309" y="444" type="line"/>
      <point x="301" y="435" type="line"/>
    </contour>
    <contour>
      <point x="318" y="259" type="line"/>
      <point x="468" y="65" type="line"/>
      <point x="401" y="12" type="line"/>
      <point x="215" y="255" type="line"/>
      <point x="401" y="498" type="line"/>
      <point x="468" y="445" type="line"/>
    </contour>
    <contour>
      <point x="141" y="259" type="line"/>
      <point x="291" y="65" type="line"/>
      <point x="223" y="12" type="line"/>
      <point x="38" y="255" type="line"/>
      <point x="223" y="498" type="line"/>
      <point x="291" y="445" type="line"/>
    </contour>
  </outline>
</glyph>
<glyph name="logicalnot" format="2">
  <advance width="535"/>
  <unicode hex="00AC"/>
  <outline>
    <contour>
      <point x="476" y="600" type="line"/>
      <point x="476" y="615" type="line"/>
      <point x="496" y="615" type="line"/>
      <point x="496" y="600" type="line"/>
    </contour>
    <contour>
      <point x="356" y="373" type="line"/>
      <point x="356" y="388" type="line"/>
      <point x="496" y="388" type="line"/>
      <point x="496" y="373" type="line"/>
    </contour>
    <contour>
      <point x="75" y="495" type="line"/>
      <point x="60" y="495" type="line"/>
      <point x="60" y="635" type="line"/>
      <point x="75" y="635" type="line"/>
    </contour>
    <contour>
      <point x="376" y="515" type="line"/>
      <point x="60" y="515" type="line"/>
      <point x="60" y="615" type="line"/>
      <point x="476" y="615" type="line"/>
      <point x="476" y="373" type="line"/>
      <point x="376" y="373" type="line"/>
    </contour>
  </outline>
</glyph>
<glyph name="acute" format="2">
  <advance width="375"/>
  <unicode hex="00B4"/>
  <outline>
    <contour>
      <point x="58" y="570" type="line"/>
      <point x="144" y="502" type="line"/>
      <point x="134" y="491" type="line"/>
      <point x="48" y="559" type="line"/>
    </contour>
    <contour>
      <point x="209" y="730" type="line"/>
      <point x="317" y="651" type="line"/>
      <point x="307" y="640" type="line"/>
      <point x="199" y="719" type="line"/>
    </contour>
    <contour>
      <point x="304" y="656" type="line"/>
      <point x="124" y="506" type="line"/>
      <point x="65" y="555" type="line"/>
      <point x="215" y="715" type="line"/>
    </contour>
  </outline>
</glyph>
<glyph name="paragraph" format="2">
  <advance width="640"/>
  <unicode hex="00B6"/>
  <outline>
    <contour>
      <point x="405" y="620" type="line"/>
      <point x="405" y="700" type="line"/>
      <point x="475" y="700" type="line"/>
      <point x="475" y="620" type="line"/>
    </contour>
    <contour>
      <point x="555" y="685" type="line"/>
      <point x="555" y="700" type="line"/>
      <point x="575" y="700" type="line"/>
      <point x="575" y="685" type="line"/>
    </contour>
    <contour>
      <point x="455" y="-80" type="line"/>
      <point x="455" y="-65" type="line"/>
      <point x="575" y="-65" type="line"/>
      <point x="575" y="-80" type="line"/>
    </contour>
    <contour>
      <point x="305" y="-80" type="line"/>
      <point x="305" y="-65" type="line"/>
      <point x="425" y="-65" type="line"/>
      <point x="425" y="-80" type="line"/>
    </contour>
    <contour>
      <point x="555" y="700" type="line"/>
      <point x="555" y="-80" type="line"/>
      <point x="475" y="-80" type="line"/>
      <point x="475" y="700" type="line"/>
    </contour>
    <contour>
      <point x="405" y="700" type="line"/>
      <point x="405" y="-80" type="line"/>
      <point x="325" y="-80" type="line"/>
      <point x="325" y="700" type="line"/>
    </contour>
    <contour>
      <point x="285" y="240" type="line" smooth="yes"/>
      <point x="145" y="240"/>
      <point x="50" y="325"/>
      <point x="50" y="470" type="curve" smooth="yes"/>
      <point x="50" y="615"/>
      <point x="145" y="700"/>
      <point x="285" y="700" type="curve" smooth="yes"/>
      <point x="365" y="700" type="line"/>
      <point x="365" y="240" type="line"/>
    </contour>
  </outline>
</glyph>
<glyph name="guillemotright" format="2">
  <advance width="522"/>
  <unicode hex="00BB"/>
  <outline>
    <contour>
      <point x="131" y="506" type="line"/>
      <point x="43" y="435" type="line"/>
      <point x="35" y="444" type="line"/>
      <point x="123" y="515" type="line"/>
    </contour>
    <contour>
      <point x="309" y="506" type="line"/>
      <point x="221" y="435" type="line"/>
      <point x="213" y="444" type="line"/>
      <point x="301" y="515" type="line"/>
    </contour>
    <contour>
      <point x="131" y="4" type="line"/>
      <point x="123" y="-5" type="line"/>
      <point x="35" y="66" type="line"/>
      <point x="43" y="75" type="line"/>
    </contour>
    <contour>
      <point x="309" y="4" type="line"/>
      <point x="301" y="-5" type="line"/>
      <point x="213" y="66" type="line"/>
      <point x="221" y="75" type="line"/>
    </contour>
    <contour>
      <point x="204" y="251" type="line"/>
      <point x="54" y="445" type="line"/>
      <point x="121" y="498" type="line"/>
      <point x="307" y="255" type="line"/>
      <point x="121" y="12" type="line"/>
      <point x="54" y="65" type="line"/>
    </contour>
    <contour>
      <point x="381" y="251" type="line"/>
      <point x="231" y="445" type="line"/>
      <point x="299" y="498" type="line"/>
      <point x="484" y="255" type="line"/>
      <point x="299" y="12" type="line"/>
      <point x="231" y="65" type="line"/>
    </contour>
  </outline>
</glyph>
<glyph name="AE" format="2">
  <advance width="1196"/>
  <unicode hex="00C6"/>
  <outline>
    <contour>
      <point x="418" y="685" type="line"/>
      <point x="418" y="700" type="line"/>
      <point x="494" y="700" type="line"/>
      <point x="494" y="685" type="line"/>
    </contour>
    <contour>
      <point x="0" y="0" type="line"/>
      <point x="0" y="15" type="line"/>
      <point x="157" y="15" type="line"/>
      <point x="157" y="0" type="line"/>
    </contour>
    <contour>
      <point x="179" y="200" type="line"/>
      <point x="209" y="290" type="line"/>
      <point x="579" y="290" type="line"/>
      <point x="609" y="200" type="line"/>
    </contour>
    <contour>
      <point x="572" y="700" type="line"/>
      <point x="132" y="0" type="line"/>
      <point x="10" y="0" type="line"/>
      <point x="450" y="700" type="line"/>
    </contour>
    <contour>
      <point x="1136" y="130" type="line"/>
      <point x="1151" y="130" type="line"/>
      <point x="1151" y="-10" type="line"/>
      <point x="1136" y="-10" type="line"/>
    </contour>
    <contour>
      <point x="1136" y="715" type="line"/>
      <point x="1151" y="715" type="line"/>
      <point x="1151" y="575" type="line"/>
      <point x="1136" y="575" type="line"/>
    </contour>
    <contour>
      <point x="966" y="420" type="line"/>
      <point x="981" y="420" type="line"/>
      <point x="981" y="295" type="line"/>
      <point x="966" y="295" type="line"/>
    </contour>
    <contour>
      <point x="515" y="0" type="line"/>
      <point x="515" y="15" type="line"/>
      <point x="535" y="15" type="line"/>
      <point x="535" y="0" type="line"/>
    </contour>
    <contour>
      <point x="607" y="0" type="line"/>
      <point x="607" y="100" type="line"/>
      <point x="1151" y="100" type="line"/>
      <point x="1151" y="0" type="line"/>
    </contour>
    <contour>
      <point x="607" y="600" type="line"/>
      <point x="607" y="700" type="line"/>
      <point x="1151" y="700" type="line"/>
      <point x="1151" y="600" type="line"/>
    </contour>
    <contour>
      <point x="607" y="310" type="line"/>
      <point x="607" y="405" type="line"/>
      <point x="981" y="405" type="line"/>
      <point x="981" y="310" type="line"/>
    </contour>
    <contour>
      <point x="535" y="700" type="line"/>
      <point x="645" y="700" type="line"/>
      <point x="645" y="0" type="line"/>
      <point x="535" y="0" type="line"/>
    </contour>
  </outline>
</glyph>
<glyph name="Oslash" format="2">
  <advance width="910"/>
  <unicode hex="00D8"/>
  <outline>
    <contour>
      <point x="35" y="-35" type="line"/>
      <point x="215" y="-35" type="line"/>
      <point x="215" y="-50" type="line"/>
      <point x="35" y="-50" type="line"/>
    </contour>
    <contour>
      <point x="690" y="750" type="line"/>
      <point x="870" y="750" type="line"/>
      <point x="870" y="735" type="line"/>
      <point x="690" y="735" type="line"/>
    </contour>
    <contour>
      <point x="850" y="750" type="line"/>
      <point x="175" y="-50" type="line"/>
      <point x="55" y="-50" type="line"/>
      <point x="730" y="750" type="line"/>
    </contour>
    <component base="O"/>
  </outline>
</glyph>
<glyph name="Thorn" format="2">
  <advance width="753"/>
  <unicode hex="00DE"/>
  <outline>
    <contour>
      <point x="65" y="685" type="line"/>
      <point x="65" y="700" type="line"/>
      <point x="215" y="700" type="line"/>
      <point x="215" y="685" type="line"/>
    </contour>
    <contour>
      <point x="65" y="0" type="line"/>
      <point x="65" y="15" type="line"/>
      <point x="215" y="15" type="line"/>
      <point x="215" y="0" type="line"/>
    </contour>
    <contour>
      <point x="85" y="700" type="line"/>
      <point x="195" y="700" type="line"/>
      <point x="195" y="0" type="line"/>
      <point x="85" y="0" type="line"/>
    </contour>
    <contour>
      <point x="132" y="471" type="line"/>
      <point x="132" y="571" type="line"/>
      <point x="480" y="571" type="line" smooth="yes"/>
      <point x="605" y="571"/>
      <point x="718" y="525"/>
      <point x="718" y="371" type="curve" smooth="yes"/>
      <point x="718" y="218"/>
      <point x="605" y="171"/>
      <point x="480" y="171" type="curve" smooth="yes"/>
      <point x="132" y="171" type="line"/>
      <point x="132" y="271" type="line"/>
      <point x="470" y="271" type="line" smooth="yes"/>
      <point x="559" y="271"/>
      <point x="603" y="305"/>
      <point x="603" y="371" type="curve" smooth="yes"/>
      <point x="603" y="437"/>
      <point x="559" y="471"/>
      <point x="470" y="471" type="curve" smooth="yes"/>
    </contour>
  </outline>
</glyph>
<glyph name="Lslash" format="2">
  <advance width="720"/>
  <unicode hex="0141"/>
  <outline>
    <contour>
      <point x="325" y="600" type="line"/>
      <point x="340" y="600" type="line"/>
      <point x="340" y="420" type="line"/>
      <point x="325" y="420" type="line"/>
    </contour>
    <contour>
      <point x="0" y="409" type="line"/>
      <point x="15" y="409" type="line"/>
      <point x="15" y="229" type="line"/>
      <point x="0" y="229" type="line"/>
    </contour>
    <contour>
      <point x="0" y="249" type="line"/>
      <point x="0" y="369" type="line"/>
      <point x="340" y="580" type="line"/>
      <point x="340" y="460" type="line"/>
    </contour>
    <component base="L"/>
  </outline>
</glyph>
<glyph name="Eng" format="2">
  <advance width="792"/>
  <unicode hex="014A"/>
  <outline>
    <contour>
      <point x="190" y="499" type="curve"/>
      <point x="126" y="550" type="line"/>
      <point x="211" y="640"/>
      <point x="311" y="720"/>
      <point x="454" y="720" type="curve" smooth="yes"/>
      <point x="608" y="720"/>
      <point x="712" y="649"/>
      <point x="712" y="520" type="curve" smooth="yes"/>
      <point x="712" y="440" type="line"/>
      <point x="597" y="440" type="line"/>
      <point x="597" y="495" type="line" smooth="yes"/>
      <point x="597" y="594"/>
      <point x="521" y="620"/>
      <point x="431" y="620" type="curve" smooth="yes"/>
      <point x="325" y="620"/>
      <point x="234" y="570"/>
    </contour>
    <contour>
      <point x="65" y="0" type="line"/>
      <point x="65" y="15" type="line"/>
      <point x="220" y="15" type="line"/>
      <point x="220" y="0" type="line"/>
    </contour>
    <contour>
      <point x="65" y="685" type="line"/>
      <point x="65" y="700" type="line"/>
      <point x="220" y="700" type="line"/>
      <point x="220" y="685" type="line"/>
    </contour>
    <contour>
      <point x="85" y="700" type="line"/>
      <point x="200" y="700" type="line"/>
      <point x="200" y="0" type="line"/>
      <point x="85" y="0" type="line"/>
    </contour>
    <contour>
      <point x="357" y="151" type="line"/>
      <point x="370" y="143" type="line"/>
      <point x="293" y="32" type="line"/>
      <point x="280" y="40" type="line"/>
    </contour>
    <contour>
      <point x="357" y="137" type="line"/>
      <point x="391" y="110"/>
      <point x="435" y="80"/>
      <point x="501" y="80" type="curve" smooth="yes"/>
      <point x="561" y="80"/>
      <point x="597" y="106"/>
      <point x="597" y="165" type="curve" smooth="yes"/>
      <point x="597" y="440" type="line"/>
      <point x="712" y="440" type="line"/>
      <point x="712" y="140" type="line" smooth="yes"/>
      <point x="712" y="31"/>
      <point x="608" y="-20"/>
      <point x="494" y="-20" type="curve" smooth="yes"/>
      <point x="411" y="-20"/>
      <point x="341" y="20"/>
      <point x="296" y="50" type="curve"/>
    </contour>
  </outline>
</glyph>
<glyph name="OE" format="2">
  <advance width="1271"/>
  <unicode hex="0152"/>
  <outline>
    <contour>
      <point x="405" y="700" type="curve" smooth="yes"/>
      <point x="720" y="700" type="line"/>
      <point x="720" y="600" type="line"/>
      <point x="415" y="600" type="line" smooth="yes"/>
      <point x="257" y="600"/>
      <point x="175" y="513"/>
      <point x="175" y="350" type="curve" smooth="yes"/>
      <point x="175" y="187"/>
      <point x="257" y="100"/>
      <point x="415" y="100" type="curve" smooth="yes"/>
      <point x="720" y="100" type="line"/>
      <point x="720" y="0" type="line"/>
      <point x="405" y="0" type="line" smooth="yes"/>
      <point x="201" y="0"/>
      <point x="55" y="131"/>
      <point x="55" y="350" type="curve" smooth="yes"/>
      <point x="55" y="569"/>
      <point x="201" y="700"/>
    </contour>
    <contour>
      <point x="1211" y="130" type="line"/>
      <point x="1226" y="130" type="line"/>
      <point x="1226" y="-10" type="line"/>
      <point x="1211" y="-10" type="line"/>
    </contour>
    <contour>
      <point x="1211" y="715" type="line"/>
      <point x="1226" y="715" type="line"/>
      <point x="1226" y="575" type="line"/>
      <point x="1211" y="575" type="line"/>
    </contour>
    <contour>
      <point x="1041" y="420" type="line"/>
      <point x="1056" y="420" type="line"/>
      <point x="1056" y="295" type="line"/>
      <point x="1041" y="295" type="line"/>
    </contour>
    <contour>
      <point x="682" y="0" type="line"/>
      <point x="682" y="100" type="line"/>
      <point x="1226" y="100" type="line"/>
      <point x="1226" y="0" type="line"/>
    </contour>
    <contour>
      <point x="682" y="600" type="line"/>
      <point x="682" y="700" type="line"/>
      <point x="1226" y="700" type="line"/>
      <point x="1226" y="600" type="line"/>
    </contour>
    <contour>
      <point x="682" y="310" type="line"/>
      <point x="682" y="405" type="line"/>
      <point x="1056" y="405" type="line"/>
      <point x="1056" y="310" type="line"/>
    </contour>
    <contour>
      <point x="610" y="700" type="line"/>
      <point x="720" y="700" type="line"/>
      <point x="720" y="0" type="line"/>
      <point x="610" y="0" type="line"/>
    </contour>
  </outline>
</glyph>
<glyph name="Tbar" format="2">
  <advance width="685"/>
  <unicode hex="0166"/>
  <outline>
    <contour>
      <point x="110" y="420" type="line"/>
      <point x="125" y="420" type="line"/>
      <point x="125" y="290" type="line"/>
      <point x="110" y="290" type="line"/>
    </contour>
    <contour>
      <point x="560" y="420" type="line"/>
      <point x="575" y="420" type="line"/>
      <point x="575" y="290" type="line"/>
      <point x="560" y="290" type="line"/>
    </contour>
    <contour>
      <point x="110" y="305" type="line"/>
      <point x="110" y="405" type="line"/>
      <point x="575" y="405" type="line"/>
      <point x="575" y="305" type="line"/>
    </contour>
    <component base="T"/>
  </outline>
</glyph>
<glyph name="circumflex" format="2">
  <advance width="384"/>
  <unicode hex="02C6"/>
  <anchor x="192" y="700" name="_top"/>
  <outline>
    <contour>
      <point x="372" y="808" type="line"/>
      <point x="372" y="793" type="line"/>
      <point x="232" y="793" type="line"/>
      <point x="232" y="808" type="line"/>
    </contour>
    <contour>
      <point x="152" y="808" type="line"/>
      <point x="152" y="793" type="line"/>
      <point x="12" y="793" type="line"/>
      <point x="12" y="808" type="line"/>
    </contour>
    <contour>
      <point x="262" y="943" type="line"/>
      <point x="262" y="928" type="line"/>
      <point x="122" y="928" type="line"/>
      <point x="122" y="943" type="line"/>
    </contour>
    <contour>
      <point x="192" y="884" type="line"/>
      <point x="122" y="793" type="line"/>
      <point x="22" y="793" type="line"/>
      <point x="152" y="943" type="line"/>
      <point x="232" y="943" type="line"/>
      <point x="362" y="793" type="line"/>
      <point x="262" y="793" type="line"/>
    </contour>
  </outline>
</glyph>
<glyph name="breve" format="2">
  <advance width="279"/>
  <unicode hex="02D8"/>
  <anchor x="140" y="700" name="_top"/>
  <outline>
    <contour>
      <point x="195" y="919" type="line"/>
      <point x="195" y="934" type="line"/>
      <point x="310" y="934" type="line"/>
      <point x="310" y="919" type="line"/>
    </contour>
    <contour>
      <point x="-30" y="919" type="line"/>
      <point x="-30" y="934" type="line"/>
      <point x="85" y="934" type="line"/>
      <point x="85" y="919" type="line"/>
    </contour>
    <contour>
      <point x="65" y="919" type="line"/>
      <point x="65" y="880"/>
      <point x="96" y="860"/>
      <point x="140" y="860" type="curve" smooth="yes"/>
      <point x="184" y="860"/>
      <point x="215" y="880"/>
      <point x="215" y="919" type="curve"/>
      <point x="290" y="919" type="line"/>
      <point x="290" y="838"/>
      <point x="240" y="790"/>
      <point x="140" y="790" type="curve" smooth="yes"/>
      <point x="40" y="790"/>
      <point x="-10" y="838"/>
      <point x="-10" y="919" type="curve"/>
    </contour>
  </outline>
</glyph>
<glyph name="ring" format="2">
  <advance width="319"/>
  <unicode hex="02DA"/>
  <anchor x="160" y="700" name="_top"/>
  <outline>
    <contour>
      <point x="70" y="850" type="curve" smooth="yes"/>
      <point x="70" y="901"/>
      <point x="109" y="940"/>
      <point x="160" y="940" type="curve" smooth="yes"/>
      <point x="211" y="940"/>
      <point x="250" y="901"/>
      <point x="250" y="850" type="curve" smooth="yes"/>
      <point x="250" y="799"/>
      <point x="211" y="760"/>
      <point x="160" y="760" type="curve" smooth="yes"/>
      <point x="109" y="760"/>
      <point x="70" y="799"/>
    </contour>
    <contour>
      <point x="110" y="850" type="curve" smooth="yes"/>
      <point x="110" y="816"/>
      <point x="132" y="797"/>
      <point x="160" y="797" type="curve" smooth="yes"/>
      <point x="188" y="797"/>
      <point x="211" y="816"/>
      <point x="211" y="850" type="curve" smooth="yes"/>
      <point x="211" y="884"/>
      <point x="188" y="904"/>
      <point x="160" y="904" type="curve" smooth="yes"/>
      <point x="132" y="904"/>
      <point x="110" y="884"/>
    </contour>
  </outline>
</glyph>
<glyph name="ogonek" format="2">
  <advance width="549"/>
  <unicode hex="02DB"/>
  <anchor x="282" y="24" name="_cedilla"/>
  <outline>
    <contour>
      <point x="388" y="-114" type="line"/>
      <point x="374" y="-142"/>
      <point x="343" y="-186"/>
      <point x="263" y="-186" type="curve" smooth="yes"/>
      <point x="192" y="-186"/>
      <point x="155" y="-151"/>
      <point x="155" y="-91" type="curve" smooth="yes"/>
      <point x="155" y="-11"/>
      <point x="243" y="23"/>
      <point x="304" y="43" type="curve"/>
      <point x="316" y="24" type="line"/>
      <point x="285" y="7"/>
      <point x="258" y="-32"/>
      <point x="258" y="-75" type="curve" smooth="yes"/>
      <point x="258" y="-112"/>
      <point x="282" y="-134"/>
      <point x="316" y="-134" type="curve" smooth="yes"/>
      <point x="344" y="-134"/>
      <point x="365" y="-127"/>
      <point x="379" y="-108" type="curve"/>
    </contour>
  </outline>
</glyph>
<glyph name="tilde" format="2">
  <advance width="447"/>
  <unicode hex="02DC"/>
  <anchor x="234" y="750" name="_top"/>
  <outline>
    <contour>
      <point x="311" y="972" type="line"/>
      <point x="311" y="987" type="line"/>
      <point x="435" y="987" type="line"/>
      <point x="435" y="972" type="line"/>
    </contour>
    <contour>
      <point x="13" y="830" type="line"/>
      <point x="13" y="845" type="line"/>
      <point x="137" y="845" type="line"/>
      <point x="137" y="830" type="line"/>
    </contour>
    <contour>
      <point x="120" y="836" type="curve"/>
      <point x="36" y="841" type="line"/>
      <point x="34" y="848"/>
      <point x="33" y="866"/>
      <point x="33" y="875" type="curve" smooth="yes"/>
      <point x="33" y="896"/>
      <point x="38.8475" y="931.115"/>
      <point x="57" y="955" type="curve" smooth="yes"/>
      <point x="76" y="980"/>
      <point x="106" y="997"/>
      <point x="147" y="997" type="curve" smooth="yes"/>
      <point x="184" y="997"/>
      <point x="211.242" y="982.976"/>
      <point x="232" y="961" type="curve" smooth="yes"/>
      <point x="252.425" y="939.377"/>
      <point x="279" y="902"/>
      <point x="304" y="902" type="curve" smooth="yes"/>
      <point x="330" y="902"/>
      <point x="335" y="922"/>
      <point x="335" y="951" type="curve" smooth="yes"/>
      <point x="335" y="959"/>
      <point x="332" y="973"/>
      <point x="328" y="983" type="curve"/>
      <point x="414" y="978" type="line"/>
      <point x="416" y="970"/>
      <point x="418" y="950"/>
      <point x="418" y="940" type="curve" smooth="yes"/>
      <point x="418" y="920"/>
      <point x="413.16" y="881.881"/>
      <point x="396" y="859" type="curve" smooth="yes"/>
      <point x="378" y="835"/>
      <point x="366" y="822"/>
      <point x="320" y="822" type="curve" smooth="yes"/>
      <point x="276" y="822"/>
      <point x="249.511" y="843.541"/>
      <point x="229" y="865" type="curve" smooth="yes"/>
      <point x="210.203" y="884.666"/>
      <point x="184" y="917"/>
      <point x="149" y="917" type="curve" smooth="yes"/>
      <point x="118" y="917"/>
      <point x="111" y="888"/>
      <point x="111" y="863" type="curve" smooth="yes"/>
      <point x="111" y="856"/>
      <point x="114" y="844"/>
    </contour>
  </outline>
</glyph>
<glyph name="uni0304" format="2">
  <unicode hex="0304"/>
  <anchor x="-209" y="700" name="_top"/>
  <outline>
    <contour>
      <point x="-329" y="895" type="line"/>
      <point x="-314" y="895" type="line"/>
      <point x="-314" y="785" type="line"/>
      <point x="-329" y="785" type="line"/>
    </contour>
    <contour>
      <point x="-104" y="895" type="line"/>
      <point x="-89" y="895" type="line"/>
      <point x="-89" y="785" type="line"/>
      <point x="-104" y="785" type="line"/>
    </contour>
    <contour>
      <point x="-329" y="800" type="line"/>
      <point x="-329" y="880" type="line"/>
      <point x="-89" y="880" type="line"/>
      <point x="-89" y="800" type="line"/>
    </contour>
  </outline>
</glyph>
<glyph name="uni0307" format="2">
  <unicode hex="0307"/>
  <outline>
    <contour>
      <point x="-230" y="576" type="curve" smooth="yes"/>
      <point x="-230" y="600"/>
      <point x="-202" y="624"/>
      <point x="-178" y="624" type="curve" smooth="yes"/>
      <point x="-151" y="624"/>
      <point x="-130" y="596"/>
      <point x="-130" y="572" type="curve" smooth="yes"/>
      <point x="-130" y="551"/>
      <point x="-154" y="524"/>
      <point x="-182" y="524" type="curve" smooth="yes"/>
      <point x="-206" y="524"/>
      <point x="-230" y="550"/>
    </contour>
  </outline>
</glyph>
<glyph name="uni1E9E" format="2">
  <advance width="861"/>
  <unicode hex="1E9E"/>
  <outline>
    <contour>
      <point x="783" y="557" type="line"/>
      <point x="800" y="572" type="line"/>
      <point x="810" y="560" type="line"/>
    </contour>
    <contour>
      <point x="339" y="166" type="line"/>
      <point x="353" y="159" type="line"/>
      <point x="293" y="33" type="line"/>
      <point x="279" y="40" type="line"/>
    </contour>
    <contour>
      <point x="55" y="0" type="line"/>
      <point x="55" y="15" type="line"/>
      <point x="210" y="15" type="line"/>
      <point x="210" y="0" type="line"/>
    </contour>
    <contour>
      <point x="545" y="-12" type="curve" smooth="yes"/>
      <point x="439" y="-12"/>
      <point x="351" y="21"/>
      <point x="295" y="56" type="curve"/>
      <point x="339" y="147" type="line"/>
      <point x="389" y="118"/>
      <point x="471" y="84"/>
      <point x="531" y="84" type="curve" smooth="yes"/>
      <point x="611" y="84"/>
      <point x="707" y="103"/>
      <point x="707" y="172" type="curve" smooth="yes"/>
      <point x="707" y="276"/>
      <point x="493" y="243"/>
      <point x="493" y="369" type="curve" smooth="yes"/>
      <point x="493" y="455"/>
      <point x="609" y="509"/>
      <point x="639" y="541" type="curve"/>
      <point x="609" y="569"/>
      <point x="531" y="611"/>
      <point x="422" y="611" type="curve" smooth="yes"/>
      <point x="292" y="611"/>
      <point x="188" y="577"/>
      <point x="188" y="419" type="curve" smooth="yes"/>
      <point x="190" y="0" type="line"/>
      <point x="75" y="0" type="line"/>
      <point x="75" y="430" type="line" smooth="yes"/>
      <point x="75" y="649"/>
      <point x="241" y="712"/>
      <point x="431" y="712" type="curve" smooth="yes"/>
      <point x="598" y="712"/>
      <point x="721" y="625"/>
      <point x="783" y="557" type="curve"/>
      <point x="810" y="560" type="line"/>
      <point x="760" y="514"/>
      <point x="615" y="436"/>
      <point x="615" y="384" type="curve" smooth="yes"/>
      <point x="615" y="312"/>
      <point x="831" y="335"/>
      <point x="831" y="179" type="curve" smooth="yes"/>
      <point x="831" y="65"/>
      <point x="713" y="-12"/>
    </contour>
  </outline>
</glyph>
<glyph name="uni2010" format="2">
  <advance width="320"/>
  <unicode hex="2010"/>
  <outline>
    <contour>
      <point x="20" y="350" type="line"/>
      <point x="35" y="350" type="line"/>
      <point x="35" y="220" type="line"/>
      <point x="20" y="220" type="line"/>
    </contour>
    <contour>
      <point x="285" y="350" type="line"/>
      <point x="300" y="350" type="line"/>
      <point x="300" y="220" type="line"/>
      <point x="285" y="220" type="line"/>
    </contour>
    <contour>
      <point x="20" y="235" type="line"/>
      <point x="20" y="335" type="line"/>
      <point x="300" y="335" type="line"/>
      <point x="300" y="235" type="line"/>
    </contour>
  </outline>
</glyph>
<glyph name="figuredash" format="2">
  <advance width="446"/>
  <unicode hex="2012"/>
  <outline>
    <contour>
      <point x="20" y="350" type="line"/>
      <point x="35" y="350" type="line"/>
      <point x="35" y="220" type="line"/>
      <point x="20" y="220" type="line"/>
    </contour>
    <contour>
      <point x="411" y="350" type="line"/>
      <point x="426" y="350" type="line"/>
      <point x="426" y="220" type="line"/>
      <point x="411" y="220" type="line"/>
    </contour>
    <contour>
      <point x="20" y="235" type="line"/>
      <point x="20" y="335" type="line"/>
      <point x="426" y="335" type="line"/>
      <point x="426" y="235" type="line"/>
    </contour>
  </outline>
</glyph>
<glyph name="endash" format="2">
  <advance width="531"/>
  <unicode hex="2013"/>
  <outline>
    <contour>
      <point x="20" y="350" type="line"/>
      <point x="35" y="350" type="line"/>
      <point x="35" y="220" type="line"/>
      <point x="20" y="220" type="line"/>
    </contour>
    <contour>
      <point x="496" y="350" type="line"/>
      <point x="511" y="350" type="line"/>
      <point x="511" y="220" type="line"/>
      <point x="496" y="220" type="line"/>
    </contour>
    <contour>
      <point x="20" y="235" type="line"/>
      <point x="20" y="335" type="line"/>
      <point x="511" y="335" type="line"/>
      <point x="511" y="235" type="line"/>
    </contour>
  </outline>
</glyph>
<glyph name="emdash" format="2">
  <advance width="815"/>
  <unicode hex="2014"/>
  <outline>
    <contour>
      <point x="20" y="350" type="line"/>
      <point x="35" y="350" type="line"/>
      <point x="35" y="220" type="line"/>
      <point x="20" y="220" type="line"/>
    </contour>
    <contour>
      <point x="780" y="350" type="line"/>
      <point x="795" y="350" type="line"/>
      <point x="795" y="220" type="line"/>
      <point x="780" y="220" type="line"/>
    </contour>
    <contour>
      <point x="20" y="235" type="line"/>
      <point x="20" y="335" type="line"/>
      <point x="795" y="335" type="line"/>
      <point x="795" y="235" type="line"/>
    </contour>
  </outline>
</glyph>
<glyph name="uni2015" format="2">
  <advance width="901"/>
  <unicode hex="2015"/>
  <outline>
    <contour>
      <point x="20" y="350" type="line"/>
      <point x="36" y="350" type="line"/>
      <point x="36" y="220" type="line"/>
      <point x="20" y="220" type="line"/>
    </contour>
    <contour>
      <point x="866" y="350" type="line"/>
      <point x="881" y="350" type="line"/>
      <point x="881" y="220" type="line"/>
      <point x="866" y="220" type="line"/>
    </contour>
    <contour>
      <point x="20" y="235" type="line"/>
      <point x="20" y="335" type="line"/>
      <point x="881" y="335" type="line"/>
      <point x="881" y="235" type="line"/>
    </contour>
  </outline>
</glyph>
<glyph name="dagger" format="2">
  <advance width="594"/>
  <unicode hex="2020"/>
  <outline>
    <contour>
      <point x="225" y="-150" type="line"/>
      <point x="225" y="-135" type="line"/>
      <point x="370" y="-135" type="line"/>
      <point x="370" y="-150" type="line"/>
    </contour>
    <contour>
      <point x="225" y="685" type="line"/>
      <point x="225" y="700" type="line"/>
      <point x="370" y="700" type="line"/>
      <point x="370" y="685" type="line"/>
    </contour>
    <contour>
      <point x="90" y="560" type="line"/>
      <point x="105" y="560" type="line"/>
      <point x="105" y="430" type="line"/>
      <point x="90" y="430" type="line"/>
    </contour>
    <contour>
      <point x="490" y="560" type="line"/>
      <point x="505" y="560" type="line"/>
      <point x="505" y="430" type="line"/>
      <point x="490" y="430" type="line"/>
    </contour>
    <contour>
      <point x="90" y="540" type="line"/>
      <point x="505" y="540" type="line"/>
      <point x="505" y="450" type="line"/>
      <point x="90" y="450" type="line"/>
    </contour>
    <contour>
      <point x="245" y="700" type="line"/>
      <point x="350" y="700" type="line"/>
      <point x="350" y="-150" type="line"/>
      <point x="245" y="-150" type="line"/>
    </contour>
  </outline>
</glyph>
<glyph name="uni2031" format="2">
  <advance width="1733"/>
  <unicode hex="2031"/>
  <outline>
    <contour>
      <point x="1342" y="170" type="curve" smooth="yes"/>
      <point x="1342" y="264"/>
      <point x="1405" y="350"/>
      <point x="1520" y="350" type="curve" smooth="yes"/>
      <point x="1635" y="350"/>
      <point x="1698" y="264"/>
      <point x="1698" y="170" type="curve" smooth="yes"/>
      <point x="1698" y="76"/>
      <point x="1635" y="-10"/>
      <point x="1520" y="-10" type="curve" smooth="yes"/>
      <point x="1405" y="-10"/>
      <point x="1342" y="76"/>
    </contour>
    <contour>
      <point x="1433" y="170" type="curve" smooth="yes"/>
      <point x="1433" y="119"/>
      <point x="1465" y="75"/>
      <point x="1520" y="75" type="curve" smooth="yes"/>
      <point x="1575" y="75"/>
      <point x="1607" y="119"/>
      <point x="1607" y="170" type="curve" smooth="yes"/>
      <point x="1607" y="221"/>
      <point x="1575" y="265"/>
      <point x="1520" y="265" type="curve" smooth="yes"/>
      <point x="1465" y="265"/>
      <point x="1433" y="221"/>
    </contour>
    <contour>
      <point x="926" y="170" type="curve" smooth="yes"/>
      <point x="926" y="264"/>
      <point x="989" y="350"/>
      <point x="1104" y="350" type="curve" smooth="yes"/>
      <point x="1219" y="350"/>
      <point x="1282" y="264"/>
      <point x="1282" y="170" type="curve" smooth="yes"/>
      <point x="1282" y="76"/>
      <point x="1219" y="-10"/>
      <point x="1104" y="-10" type="curve" smooth="yes"/>
      <point x="989" y="-10"/>
      <point x="926" y="76"/>
    </contour>
    <contour>
      <point x="1017" y="170" type="curve" smooth="yes"/>
      <point x="1017" y="119"/>
      <point x="1049" y="75"/>
      <point x="1104" y="75" type="curve" smooth="yes"/>
      <point x="1159" y="75"/>
      <point x="1191" y="119"/>
      <point x="1191" y="170" type="curve" smooth="yes"/>
      <point x="1191" y="221"/>
      <point x="1159" y="265"/>
      <point x="1104" y="265" type="curve" smooth="yes"/>
      <point x="1049" y="265"/>
      <point x="1017" y="221"/>
    </contour>
    <contour>
      <point x="98" y="0" type="line"/>
      <point x="98" y="15" type="line"/>
      <point x="268" y="15" type="line"/>
      <point x="268" y="0" type="line"/>
    </contour>
    <contour>
      <point x="633" y="685" type="line"/>
      <point x="633" y="700" type="line"/>
      <point x="803" y="700" type="line"/>
      <point x="803" y="685" type="line"/>
    </contour>
    <contour>
      <point x="510" y="170" type="curve" smooth="yes"/>
      <point x="510" y="264"/>
      <point x="573" y="350"/>
      <point x="688" y="350" type="curve" smooth="yes"/>
      <point x="803" y="350"/>
      <point x="866" y="264"/>
      <point x="866" y="170" type="curve" smooth="yes"/>
      <point x="866" y="76"/>
      <point x="803" y="-10"/>
      <point x="688" y="-10" type="curve" smooth="yes"/>
      <point x="573" y="-10"/>
      <point x="510" y="76"/>
    </contour>
    <contour>
      <point x="601" y="170" type="curve" smooth="yes"/>
      <point x="601" y="119"/>
      <point x="633" y="75"/>
      <point x="688" y="75" type="curve" smooth="yes"/>
      <point x="743" y="75"/>
      <point x="775" y="119"/>
      <point x="775" y="170" type="curve" smooth="yes"/>
      <point x="775" y="221"/>
      <point x="743" y="265"/>
      <point x="688" y="265" type="curve" smooth="yes"/>
      <point x="633" y="265"/>
      <point x="601" y="221"/>
    </contour>
    <contour>
      <point x="35" y="530" type="curve" smooth="yes"/>
      <point x="35" y="624"/>
      <point x="98" y="710"/>
      <point x="213" y="710" type="curve" smooth="yes"/>
      <point x="328" y="710"/>
      <point x="391" y="624"/>
      <point x="391" y="530" type="curve" smooth="yes"/>
      <point x="391" y="436"/>
      <point x="328" y="350"/>
      <point x="213" y="350" type="curve" smooth="yes"/>
      <point x="98" y="350"/>
      <point x="35" y="436"/>
    </contour>
    <contour>
      <point x="126" y="530" type="curve" smooth="yes"/>
      <point x="126" y="479"/>
      <point x="158" y="435"/>
      <point x="213" y="435" type="curve" smooth="yes"/>
      <point x="268" y="435"/>
      <point x="300" y="479"/>
      <point x="300" y="530" type="curve" smooth="yes"/>
      <point x="300" y="581"/>
      <point x="268" y="625"/>
      <point x="213" y="625" type="curve" smooth="yes"/>
      <point x="158" y="625"/>
      <point x="126" y="581"/>
    </contour>
    <contour>
      <point x="673" y="700" type="line"/>
      <point x="788" y="700" type="line"/>
      <point x="228" y="0" type="line"/>
      <point x="113" y="0" type="line"/>
    </contour>
  </outline>
</glyph>
<glyph name="guilsinglleft" format="2">
  <advance width="344"/>
  <unicode hex="2039"/>
  <outline>
    <contour>
      <point x="213" y="4" type="line"/>
      <point x="301" y="75" type="line"/>
      <point x="309" y="66" type="line"/>
      <point x="221" y="-5" type="line"/>
    </contour>
    <contour>
      <point x="213" y="506" type="line"/>
      <point x="221" y="515" type="line"/>
      <point x="309" y="444" type="line"/>
      <point x="301" y="435" type="line"/>
    </contour>
    <contour>
      <point x="141" y="259" type="line"/>
      <point x="291" y="65" type="line"/>
      <point x="223" y="12" type="line"/>
      <point x="38" y="255" type="line"/>
      <point x="223" y="498" type="line"/>
      <point x="291" y="445" type="line"/>
    </contour>
  </outline>
</glyph>
<glyph name="guilsinglright" format="2">
  <advance width="344"/>
  <unicode hex="203A"/>
  <outline>
    <contour>
      <point x="131" y="506" type="line"/>
      <point x="43" y="435" type="line"/>
      <point x="35" y="444" type="line"/>
      <point x="123" y="515" type="line"/>
    </contour>
    <contour>
      <point x="131" y="4" type="line"/>
      <point x="123" y="-5" type="line"/>
      <point x="35" y="66" type="line"/>
      <point x="43" y="75" type="line"/>
    </contour>
    <contour>
      <point x="203" y="251" type="line"/>
      <point x="53" y="445" type="line"/>
      <point x="121" y="498" type="line"/>
      <point x="306" y="255" type="line"/>
      <point x="121" y="12" type="line"/>
      <point x="53" y="65" type="line"/>
    </contour>
  </outline>
</glyph>
<glyph name="Euro" format="2">
  <advance width="900"/>
  <unicode hex="20AC"/>
  <outline>
    <contour>
      <point x="5" y="399" type="line"/>
      <point x="5" y="439" type="line"/>
      <point x="475" y="439" type="line"/>
      <point x="475" y="399" type="line"/>
    </contour>
    <contour>
      <point x="5" y="279" type="line"/>
      <point x="5" y="319" type="line"/>
      <point x="475" y="319" type="line"/>
      <point x="475" y="279" type="line"/>
    </contour>
    <contour>
      <point x="783" y="216" type="line"/>
      <point x="860" y="106" type="line"/>
      <point x="847" y="98" type="line"/>
      <point x="770" y="208" type="line"/>
    </contour>
    <contour>
      <point x="825" y="619" type="line"/>
      <point x="838" y="611" type="line"/>
      <point x="762" y="499" type="line"/>
      <point x="749" y="507" type="line"/>
    </contour>
    <contour>
      <point x="190" y="350" type="curve" smooth="yes"/>
      <point x="190" y="202"/>
      <point x="302" y="90"/>
      <point x="500" y="90" type="curve" smooth="yes"/>
      <point x="619" y="90"/>
      <point x="724" y="150"/>
      <point x="783" y="202" type="curve"/>
      <point x="845" y="115" type="line"/>
      <point x="776" y="63"/>
      <point x="662" y="-10"/>
      <point x="500" y="-10" type="curve" smooth="yes"/>
      <point x="237" y="-10"/>
      <point x="75" y="136"/>
      <point x="75" y="350" type="curve" smooth="yes"/>
      <point x="75" y="564"/>
      <point x="237" y="710"/>
      <point x="500" y="710" type="curve" smooth="yes"/>
      <point x="662" y="710"/>
      <point x="766" y="647"/>
      <point x="825" y="605" type="curve"/>
      <point x="764" y="516" type="line"/>
      <point x="715" y="558"/>
      <point x="619" y="610"/>
      <point x="500" y="610" type="curve" smooth="yes"/>
      <point x="302" y="610"/>
      <point x="190" y="498"/>
    </contour>
  </outline>
</glyph>
